<svg id="Icons" xmlns="http://www.w3.org/2000/svg" viewBox="0 0 484.32 236.35"><defs><style>.cls-1{fill:#0099f7;}</style></defs><path class="cls-1" d="M145.5,374.18H125.44a6.92,6.92,0,1,1,0-13.84H145.5a6.92,6.92,0,0,1,0,13.84Z" transform="translate(-13.84 -137.82)"/><path class="cls-1" d="M430.29,374.18H262.92a6.92,6.92,0,0,1,0-13.84H430.29a13.84,13.84,0,0,0,13.84-13.84v-181a13.84,13.84,0,0,0-13.84-13.84H41.51A13.84,13.84,0,0,0,27.68,165.5v181a13.84,13.84,0,0,0,13.83,13.84H77a6.92,6.92,0,0,1,0,13.84H41.51A27.68,27.68,0,0,1,13.84,346.5v-181a27.68,27.68,0,0,1,27.67-27.68H430.29A27.68,27.68,0,0,1,458,165.5v181a27.68,27.68,0,0,1-27.67,27.68Z" transform="translate(-13.84 -137.82)"/><path class="cls-1" d="M214.49,374.18H193.94a6.92,6.92,0,1,1,0-13.84h20.55a6.92,6.92,0,0,1,0,13.84Z" transform="translate(-13.84 -137.82)"/><path class="cls-1" d="M483.36,307.44H451.05a6.92,6.92,0,0,1-6.92-6.92v-89a6.92,6.92,0,0,1,6.92-6.92h32.31a14.83,14.83,0,0,1,14.8,14.81v73.26A14.83,14.83,0,0,1,483.36,307.44ZM458,293.6h25.39a1,1,0,0,0,1-1V219.37a1,1,0,0,0-1-1H458Z" transform="translate(-13.84 -137.82)"/><path class="cls-1" d="M108.47,335.57H65.08a14.06,14.06,0,0,1-14-14.05v-131a14.06,14.06,0,0,1,14-14h43.39a14.07,14.07,0,0,1,14,14v131A14.07,14.07,0,0,1,108.47,335.57ZM65.08,190.27l-.22.21v131l43.59.21.22-131.25Z" transform="translate(-13.84 -137.82)"/><path class="cls-1" d="M206.49,335.57H163.1a14.06,14.06,0,0,1-14-14.05v-131a14.06,14.06,0,0,1,14-14h43.39a14.07,14.07,0,0,1,14,14v131A14.07,14.07,0,0,1,206.49,335.57ZM163.1,190.27l-.21.21v131l43.58.21.22-131.25Z" transform="translate(-13.84 -137.82)"/><path class="cls-1" d="M304.51,335.57h-43.4a14.08,14.08,0,0,1-14.05-14.05v-131a14.08,14.08,0,0,1,14.05-14h43.4a14.07,14.07,0,0,1,14.05,14v131A14.07,14.07,0,0,1,304.51,335.57Zm-43.4-145.3-.21.21v131l43.59.21.21-131.25Z" transform="translate(-13.84 -137.82)"/></svg>