<svg id="Capa_1" data-name="Capa 1" xmlns="http://www.w3.org/2000/svg" viewBox="0 0 513.88 201.96"><defs><style>.cls-1{fill:#0099f7;stroke:#0099f7;stroke-miterlimit:10;stroke-width:2px;}</style></defs><path class="cls-1" d="M511.21,261.72l-16-24a4,4,0,0,0-2.55-1.7L374.89,212.87C366.33,206.73,293.3,156,220,156,150.51,156,108,169,100,171.73l-22.7-7.56a4,4,0,1,0-2.53,7.58l24,8a4.08,4.08,0,0,0,2.63,0C101.78,179.56,145.68,164,220,164c73.75,0,150.18,55.33,150.94,55.89a4.28,4.28,0,0,0,1.59.7l117,23,14.4,21.6v42.78s-.05,3.12-4.79,4.07c-6.1,1.22-33.7,3.11-47.44,3.93a4,4,0,0,0,.24,8h.25c1.64-.1,40.35-2.42,48.53-4.07,8.87-1.78,11.21-8.57,11.21-11.91v-44A4,4,0,0,0,511.21,261.72Z" transform="translate(1 -154.96)"/><path class="cls-1" d="M79.7,182.47a4,4,0,0,0-5.2-2.23c-40.29,16.12-64.33,39.88-65.33,40.88A4,4,0,0,0,8,224V247L.42,262.15A4,4,0,0,0,0,263.94v40c0,1.08.49,6.72,10.21,11.57,8.37,4.17,37.94,8,41.28,8.39l.5,0a4,4,0,0,0,.49-8c-8.7-1.09-32.64-4.59-38.7-7.61-5-2.51-5.76-4.67-5.78-4.45v-39l7.58-15.15a4.09,4.09,0,0,0,.42-1.79V225.66c5.21-4.84,27.54-24.42,61.47-38A4,4,0,0,0,79.7,182.47Z" transform="translate(1 -154.96)"/><path class="cls-1" d="M355.92,315.93H148a4,4,0,0,0,0,8h208a4,4,0,1,0,0-8Z" transform="translate(1 -154.96)"/><path class="cls-1" d="M259.94,236h-16a4,4,0,1,0,0,8h16a4,4,0,1,0,0-8Z" transform="translate(1 -154.96)"/><path class="cls-1" d="M172,236H156a4,4,0,0,0,0,8h16a4,4,0,1,0,0-8Z" transform="translate(1 -154.96)"/><path class="cls-1" d="M355.92,212H164c-36.91,0-51.8-28.57-52.41-29.79a4,4,0,0,0-7.15,3.59C105.1,187.14,122,220,164,220h192a4,4,0,0,0,0-8Z" transform="translate(1 -154.96)"/><path class="cls-1" d="M76,164a4,4,0,0,0-4,4v8a4,4,0,0,0,8,0v-8A4,4,0,0,0,76,164Z" transform="translate(1 -154.96)"/><path class="cls-1" d="M28,275.94H4a4,4,0,1,0,0,8H28a4,4,0,1,0,0-8Z" transform="translate(1 -154.96)"/><path class="cls-1" d="M55.7,230.46a4,4,0,0,0-5.2-2.23l-40,16A4,4,0,0,0,12,251.94a4,4,0,0,0,1.48-.28l40-16A4,4,0,0,0,55.7,230.46Z" transform="translate(1 -154.96)"/><path class="cls-1" d="M52.77,228l-40-8a4,4,0,0,0-1.57,7.84l40,8A4.41,4.41,0,0,0,52,236a4,4,0,0,0,.78-7.92Z" transform="translate(1 -154.96)"/><path class="cls-1" d="M223.87,207.17l-8-40a4,4,0,0,0-4.7-3.14,4,4,0,0,0-3.14,4.71l8,40a4,4,0,0,0,3.91,3.21,3.53,3.53,0,0,0,.79-.08A4,4,0,0,0,223.87,207.17Z" transform="translate(1 -154.96)"/><path class="cls-1" d="M508.54,260l-48-8a4,4,0,0,0-1.32,7.88l48,8a3.79,3.79,0,0,0,.67.06,4,4,0,0,0,.65-7.95Z" transform="translate(1 -154.96)"/><path class="cls-1" d="M461.68,252.36l-16-8a4,4,0,1,0-3.57,7.15l16,8a4.12,4.12,0,0,0,1.79.42,4,4,0,0,0,1.79-7.58Z" transform="translate(1 -154.96)"/><path class="cls-1" d="M481.23,243.94H443.9a4,4,0,0,0,0,8h37.33a4,4,0,0,0,0-8Z" transform="translate(1 -154.96)"/><path class="cls-1" d="M404.15,307.93h-.09a4,4,0,0,0-3.95,4,4,4,0,1,0,4-4Z" transform="translate(1 -154.96)"/><path class="cls-1" d="M403.9,267.94a44,44,0,1,0,44,44A44,44,0,0,0,403.9,267.94Zm0,80a36,36,0,1,1,36-36A36,36,0,0,1,403.9,347.92Z" transform="translate(1 -154.96)"/><path class="cls-1" d="M403.9,283.93a4,4,0,0,0-4,4v8a4,4,0,0,0,8,0v-8A4,4,0,0,0,403.9,283.93Z" transform="translate(1 -154.96)"/><path class="cls-1" d="M403.9,323.92a4,4,0,0,0-4,4v8a4,4,0,0,0,8,0v-8A4,4,0,0,0,403.9,323.92Z" transform="translate(1 -154.96)"/><path class="cls-1" d="M387.91,307.93h-8a4,4,0,0,0,0,8h8a4,4,0,0,0,0-8Z" transform="translate(1 -154.96)"/><path class="cls-1" d="M427.9,307.93h-8a4,4,0,0,0,0,8h8a4,4,0,0,0,0-8Z" transform="translate(1 -154.96)"/><path class="cls-1" d="M395.42,297.79l-5.65-5.65a4,4,0,0,0-5.66,5.65l5.66,5.65a4,4,0,0,0,5.65,0A4,4,0,0,0,395.42,297.79Z" transform="translate(1 -154.96)"/><path class="cls-1" d="M423.7,326.07,418,320.41a4,4,0,0,0-5.65,5.66l5.65,5.65a4,4,0,0,0,5.66-5.65Z" transform="translate(1 -154.96)"/><path class="cls-1" d="M395.42,320.41a4,4,0,0,0-5.65,0l-5.66,5.66a4,4,0,0,0,5.66,5.65l5.65-5.65A4,4,0,0,0,395.42,320.41Z" transform="translate(1 -154.96)"/><path class="cls-1" d="M423.7,292.14a4,4,0,0,0-5.66,0l-5.65,5.65a4,4,0,1,0,5.65,5.65l5.66-5.65A4,4,0,0,0,423.7,292.14Z" transform="translate(1 -154.96)"/><path class="cls-1" d="M100.21,307.93h-.07a4,4,0,0,0-4,4,4,4,0,1,0,4-4Z" transform="translate(1 -154.96)"/><path class="cls-1" d="M100,267.94a44,44,0,1,0,44,44A44,44,0,0,0,100,267.94Zm0,80a36,36,0,1,1,36-36A36,36,0,0,1,100,347.92Z" transform="translate(1 -154.96)"/><path class="cls-1" d="M100,283.93a4,4,0,0,0-4,4v8a4,4,0,0,0,8,0v-8A4,4,0,0,0,100,283.93Z" transform="translate(1 -154.96)"/><path class="cls-1" d="M100,323.92a4,4,0,0,0-4,4v8a4,4,0,0,0,8,0v-8A4,4,0,0,0,100,323.92Z" transform="translate(1 -154.96)"/><path class="cls-1" d="M84,307.93H76a4,4,0,0,0,0,8h8a4,4,0,1,0,0-8Z" transform="translate(1 -154.96)"/><path class="cls-1" d="M124,307.93h-8a4,4,0,1,0,0,8h8a4,4,0,0,0,0-8Z" transform="translate(1 -154.96)"/><path class="cls-1" d="M91.49,297.79l-5.65-5.65a4,4,0,0,0-5.66,5.65l5.66,5.65a4,4,0,0,0,5.65-5.65Z" transform="translate(1 -154.96)"/><path class="cls-1" d="M119.77,326.07l-5.66-5.66a4,4,0,0,0-5.65,5.66l5.65,5.65a4,4,0,0,0,5.66-5.65Z" transform="translate(1 -154.96)"/><path class="cls-1" d="M91.5,320.41a4,4,0,0,0-5.66,0l-5.65,5.66a4,4,0,0,0,5.65,5.65l5.66-5.65A4,4,0,0,0,91.5,320.41Z" transform="translate(1 -154.96)"/><path class="cls-1" d="M119.77,292.14a4,4,0,0,0-5.66,0l-5.65,5.65a4,4,0,0,0,0,5.65,4,4,0,0,0,5.65,0l5.66-5.65A4,4,0,0,0,119.77,292.14Z" transform="translate(1 -154.96)"/></svg>