<svg xmlns="http://www.w3.org/2000/svg" xmlns:xlink="http://www.w3.org/1999/xlink" viewBox="0 0 689.9 366.74"><defs><style>.cls-1{fill:#f5f5f5;}.cls-2{fill:#e0e0e0;}.cls-3{fill:#ebebeb;}.cls-4{fill:#fafafa;}.cls-5{fill:#263238;}.cls-6{fill:url(#linear-gradient);}.cls-7{opacity:0.7;}.cls-8{opacity:0.4;}.cls-9{opacity:0.5;}.cls-10{fill:#fff;}.cls-11{fill:none;stroke:#839198;stroke-miterlimit:10;}.cls-12{fill:#455a64;}.cls-13{fill:url(#linear-gradient-2);}.cls-14{fill:url(#linear-gradient-3);}.cls-15{fill:url(#linear-gradient-4);}.cls-16{fill:url(#linear-gradient-5);}</style><linearGradient id="linear-gradient" x1="69.26" y1="307.25" x2="680.55" y2="307.25" gradientUnits="userSpaceOnUse"><stop offset="0.01" stop-color="#00a3df"/><stop offset="0.08" stop-color="#00a3df"/><stop offset="0.09" stop-color="#00a3df"/><stop offset="0.25" stop-color="#00a0dd"/><stop offset="0.38" stop-color="#0095d5"/><stop offset="0.5" stop-color="#0084c8"/><stop offset="0.6" stop-color="#006fb9"/><stop offset="0.76" stop-color="#0f5caa"/><stop offset="1" stop-color="#2b388f"/></linearGradient><linearGradient id="linear-gradient-2" x1="272.28" y1="275.69" x2="292.22" y2="275.69" xlink:href="#linear-gradient"/><linearGradient id="linear-gradient-3" x1="691.23" y1="372.24" x2="704.77" y2="372.24" xlink:href="#linear-gradient"/><linearGradient id="linear-gradient-4" x1="702.15" y1="391.38" x2="718.98" y2="391.38" xlink:href="#linear-gradient"/><linearGradient id="linear-gradient-5" x1="676.88" y1="391.85" x2="694.17" y2="391.85" xlink:href="#linear-gradient"/></defs><g id="Background_Complete" data-name="Background Complete"><polygon class="cls-1" points="601.86 0 559.59 85.27 572.21 85.75 536.39 153.5 555.21 153.5 525.86 213.7 689.9 213.7 653.78 153.5 671.09 152.75 636.47 85.03 649.26 84.28 601.86 0"/><path class="cls-2" d="M641.39,178c.24,0-.1,51.49-.75,115s-1.69,122.14-1.7,121.9c-.07-13.58.17-58.39.83-121.9S641.14,178,641.39,178Z" transform="translate(-32.38 -79.06)"/><path class="cls-2" d="M661.49,199.89c.19.15-4,5.94-9.41,12.93S642.16,225.35,642,225.2s4-5.93,9.41-12.92S661.3,199.74,661.49,199.89Z" transform="translate(-32.38 -79.06)"/><path class="cls-2" d="M641,223.39c-.15.19-4.32-2.8-9.3-6.69s-8.91-7.19-8.77-7.39,4.32,2.81,9.31,6.7S641.14,223.2,641,223.39Z" transform="translate(-32.38 -79.06)"/><path class="cls-2" d="M639.86,265.22a20.11,20.11,0,0,1-3.11-2.43c-1.86-1.57-4.42-3.73-7.29-6.08s-5.52-4.41-7.43-5.91a19.9,19.9,0,0,1-3-2.56,16.13,16.13,0,0,1,3.37,2.06c2,1.38,4.72,3.38,7.61,5.73s5.4,4.61,7.16,6.3A16,16,0,0,1,639.86,265.22Z" transform="translate(-32.38 -79.06)"/><path class="cls-2" d="M661.52,239.36c.18.16-4.43,6.22-10.32,13.54s-10.81,13.13-11,13,4.43-6.21,10.32-13.53S661.33,239.21,661.52,239.36Z" transform="translate(-32.38 -79.06)"/><polygon class="cls-1" points="121.73 0 83.22 77.69 94.72 78.13 62.09 139.86 79.22 139.86 52.49 194.7 201.94 194.7 169.04 139.86 184.8 139.17 153.27 77.47 164.92 76.78 121.73 0"/><path class="cls-2" d="M160.62,169.18c.22,0-.08,46.9-.67,104.75s-1.26,123.44-1.48,123.43.08-65.57.68-123.44S160.4,169.18,160.62,169.18Z" transform="translate(-32.38 -79.06)"/><path class="cls-2" d="M178.94,189.15c.17.13-3.67,5.41-8.58,11.77s-9,11.43-9.2,11.29,3.66-5.4,8.57-11.77S178.76,189,178.94,189.15Z" transform="translate(-32.38 -79.06)"/><path class="cls-2" d="M160.26,210.56c-.14.17-3.93-2.56-8.47-6.1s-8.12-6.55-8-6.73,3.93,2.56,8.48,6.1S160.39,210.39,160.26,210.56Z" transform="translate(-32.38 -79.06)"/><path class="cls-2" d="M159.24,248.67a17.34,17.34,0,0,1-2.84-2.22c-1.69-1.42-4-3.4-6.65-5.53s-5-4-6.76-5.39a17.88,17.88,0,0,1-2.74-2.33,14.55,14.55,0,0,1,3.08,1.87c1.83,1.26,4.3,3.09,6.93,5.23s4.91,4.19,6.52,5.73A15.2,15.2,0,0,1,159.24,248.67Z" transform="translate(-32.38 -79.06)"/><path class="cls-2" d="M179,225.11c.17.14-4,5.66-9.39,12.33s-9.85,12-10,11.83,4-5.65,9.39-12.33S178.79,225,179,225.11Z" transform="translate(-32.38 -79.06)"/><polygon class="cls-3" points="55.42 103.95 25.76 163.79 34.62 164.13 9.48 211.67 22.68 211.67 2.09 253.92 110.59 253.92 91.86 211.67 104 211.15 79.71 163.62 88.69 163.09 55.42 103.95"/><path class="cls-2" d="M92.82,252.42c.17,0-.07,36.13-.52,80.68s-1,80.69-1.14,80.69.06-36.12.52-80.69S92.65,252.42,92.82,252.42Z" transform="translate(-32.38 -79.06)"/><path class="cls-2" d="M106.93,267.81a105.54,105.54,0,0,1-6.61,9.06,103.81,103.81,0,0,1-7.09,8.7c-.13-.11,2.82-4.17,6.6-9.07S106.79,267.7,106.93,267.81Z" transform="translate(-32.38 -79.06)"/><path class="cls-2" d="M92.54,284.3c-.11.13-3-2-6.53-4.7a54.16,54.16,0,0,1-6.15-5.18c.11-.14,3,2,6.53,4.69S92.64,284.16,92.54,284.3Z" transform="translate(-32.38 -79.06)"/><path class="cls-2" d="M91.75,313.65a13.76,13.76,0,0,1-2.18-1.71c-1.31-1.1-3.11-2.62-5.12-4.26s-3.87-3.1-5.21-4.15a13.62,13.62,0,0,1-2.11-1.8,11.49,11.49,0,0,1,2.37,1.45c1.41,1,3.31,2.37,5.34,4s3.78,3.23,5,4.42A11.23,11.23,0,0,1,91.75,313.65Z" transform="translate(-32.38 -79.06)"/><path class="cls-2" d="M106.94,295.5c.14.11-3.1,4.36-7.23,9.5s-7.59,9.22-7.72,9.11a119.36,119.36,0,0,1,7.24-9.49C103.36,299.48,106.81,295.4,106.94,295.5Z" transform="translate(-32.38 -79.06)"/><path class="cls-1" d="M602.69,415.12c-39.08,29.28-91.52,33.44-140.17,29.35s-97-15.3-145.76-12.4c-27.61,1.64-54.86,7.79-82.51,8.28s-57-5.59-77-24.69Z" transform="translate(-32.38 -79.06)"/><path class="cls-3" d="M234.85,135h132s-11.68-21.25-45.67-18.16c-32.46,3-34.11-10.45-50.61-12.1S240.36,115.74,234.85,135Z" transform="translate(-32.38 -79.06)"/><path class="cls-1" d="M352.44,171.34h72s-6.37-11.58-24.9-9.9c-17.7,1.61-18.6-5.7-27.6-6.6S355.44,160.84,352.44,171.34Z" transform="translate(-32.38 -79.06)"/><path class="cls-4" d="M427.38,103.93h72S493,92.34,474.48,94c-17.7,1.61-18.6-5.7-27.6-6.6S430.38,93.43,427.38,103.93Z" transform="translate(-32.38 -79.06)"/></g><g id="Floor"><path class="cls-5" d="M717.43,414.51c0,.15-153.37.26-342.51.26s-342.54-.11-342.54-.26,153.33-.26,342.54-.26S717.43,414.37,717.43,414.51Z" transform="translate(-32.38 -79.06)"/></g><g id="Car"><path class="cls-6" d="M672.84,315.92h0A28.78,28.78,0,0,1,674,353.76,41.49,41.49,0,0,1,659.2,365l-49.14,22.14-34.71,5.37-454.26-2.88-28.47-5.57a28.92,28.92,0,0,1-23.36-28.79l.29-19.78a7,7,0,0,1,5-6.59l2-.62s1.68-19.39,13.38-23.78c42.64-18.37,70.86-24.27,142.23-27.25l60.27-36s24.33-15.55,47-17.59,74-2.06,97.51-.71c27.61,1.59,62.64,14.15,82.18,23.84,15.3,7.59,52.13,26.34,52.13,26.34l20.83,3.49c3.14.15,60.67,3.66,67.28,4.67a13.23,13.23,0,0,1,10.47,9c1.65,5.46,3,25.51,3,25.51" transform="translate(-32.38 -79.06)"/><path class="cls-5" d="M497,247.81c-9.82-4.91-36.16-11.68-50.89-14.44s-44.67-3.14-56.63-2.84-45.2.88-62.72,5.85c-9,2.56-23.49,10.06-32,16.34-3,2.18-15.84,12.27-18.71,14.56l-22.3,20.82,274-8.65s1.58-9.55-3.35-15.05S497,247.81,497,247.81Z" transform="translate(-32.38 -79.06)"/><path class="cls-4" d="M90.53,327.11l-13.86-.2c.54-3.74,2.37-13.68,8.3-19.25l18.35.27a4.31,4.31,0,0,1,3.61,6.57l-3.34,5.43A15.08,15.08,0,0,1,90.53,327.11Z" transform="translate(-32.38 -79.06)"/><path class="cls-2" d="M92.21,326.27c1.44-6.1,3.26-14.12,8.41-18.38l2.7,0a4.31,4.31,0,0,1,3.61,6.57l-3.34,5.43A15,15,0,0,1,92,327Z" transform="translate(-32.38 -79.06)"/><g class="cls-7"><path d="M226.7,390.47a68.14,68.14,0,0,0,.94-21.68c-3.58-30.77-23.73-52.91-54.17-53.35-26.49-.38-48.37,16.17-52.84,46.82a78.83,78.83,0,0,0,.92,27.5Z" transform="translate(-32.38 -79.06)"/></g><g class="cls-7"><path d="M610,387.27c0-1.13-.13-2.29-.15-3.49-.54-38.83-26.59-65.73-57.57-66.18a51.4,51.4,0,0,0-52.08,50.6c-.13,8.64-.54,16.77.48,23.94l74.61.5Z" transform="translate(-32.38 -79.06)"/></g><path class="cls-5" d="M506.84,368.29a44.73,44.73,0,1,0,45.37-44.08A44.73,44.73,0,0,0,506.84,368.29Z" transform="translate(-32.38 -79.06)"/><path class="cls-5" d="M506.84,368.18v.11a44.73,44.73,0,1,0,89.46,1.29s0-.07,0-.11Z" transform="translate(-32.38 -79.06)"/><path class="cls-4" d="M520.16,368.49a31.41,31.41,0,1,0,31.86-31A31.41,31.41,0,0,0,520.16,368.49Z" transform="translate(-32.38 -79.06)"/><path class="cls-2" d="M552,337.53a31.42,31.42,0,0,0-31.86,31l62.81.9A31.41,31.41,0,0,0,552,337.53Z" transform="translate(-32.38 -79.06)"/><path class="cls-5" d="M532.44,368.66a19.13,19.13,0,1,0,19.4-18.85A19.13,19.13,0,0,0,532.44,368.66Z" transform="translate(-32.38 -79.06)"/><circle class="cls-5" cx="174.37" cy="370.09" r="44.74" transform="translate(-48.83 -70.85) rotate(-2.57)"/><path class="cls-5" d="M129.65,369.33s0,.08,0,.12a44.73,44.73,0,0,0,89.46,1.29v-.12Z" transform="translate(-32.38 -79.06)"/><path class="cls-4" d="M143,369.64a31.41,31.41,0,1,0,31.85-30.95A31.41,31.41,0,0,0,143,369.64Z" transform="translate(-32.38 -79.06)"/><path class="cls-2" d="M174.82,338.69A31.41,31.41,0,0,0,143,369.64l62.81.91A31.41,31.41,0,0,0,174.82,338.69Z" transform="translate(-32.38 -79.06)"/><path class="cls-5" d="M155.24,369.82A19.13,19.13,0,1,0,174.65,351,19.13,19.13,0,0,0,155.24,369.82Z" transform="translate(-32.38 -79.06)"/><g class="cls-8"><path d="M87.83,359.84c-.07,5-2.61,9-5.66,9s-5.48-4.15-5.41-9.16,2.61-9,5.67-9S87.9,354.83,87.83,359.84Z" transform="translate(-32.38 -79.06)"/></g><path class="cls-5" d="M672.84,315.92a4.19,4.19,0,0,1-.86.07l-2.48.09c-2.15.05-5.26.12-9.09.28s-8.41.36-13.47.77a114.6,114.6,0,0,0-16.29,2.4,41.43,41.43,0,0,0-8,2.77,33.68,33.68,0,0,0-6.59,4.33c-4,3.11-7,6.56-9.77,9.27a40.46,40.46,0,0,1-7,5.83,18.4,18.4,0,0,1-2.19,1.18,3.85,3.85,0,0,1-.8.33c0-.06,1.07-.54,2.85-1.72a43.21,43.21,0,0,0,6.83-5.94c2.69-2.73,5.69-6.24,9.72-9.41a33.49,33.49,0,0,1,6.69-4.43,41.08,41.08,0,0,1,8.13-2.83,111,111,0,0,1,16.4-2.37c5.08-.37,9.66-.56,13.5-.64s7-.09,9.11-.07l2.48,0A4.87,4.87,0,0,1,672.84,315.92Z" transform="translate(-32.38 -79.06)"/><g class="cls-9"><path class="cls-10" d="M608.6,388.07a6.22,6.22,0,0,1,.54-.35,16.83,16.83,0,0,0,1.51-1.12,15.31,15.31,0,0,0,4.13-5.82,23.6,23.6,0,0,0,1.45-11.21,78.59,78.59,0,0,0-3-14.85,77.72,77.72,0,0,0-7.2-16.85,64.45,64.45,0,0,0-13.31-16.21,54.87,54.87,0,0,0-20.11-11.3,62.81,62.81,0,0,0-24.71-2.11,84.07,84.07,0,0,0-24.11,6.27,52.3,52.3,0,0,0-30,30.85,87.47,87.47,0,0,0-4.66,17.74c-.44,2.78-.77,5.44-1,8a50.37,50.37,0,0,0-.3,7.13c.14,4.44,1.59,8.24,3.86,10.41a10,10,0,0,0,6.31,3.12,10.7,10.7,0,0,0,2.5-.23l-.62.18a7.87,7.87,0,0,1-1.89.18,10.09,10.09,0,0,1-6.47-3.07c-2.35-2.2-3.88-6.08-4-10.57a50.75,50.75,0,0,1,.25-7.19c.21-2.53.53-5.2.95-8a87.26,87.26,0,0,1,4.62-17.86,64.39,64.39,0,0,1,4.44-9.29,51.78,51.78,0,0,1,6.52-8.77A55.81,55.81,0,0,1,523.58,314a84,84,0,0,1,24.29-6.33,63,63,0,0,1,25,2.14,55.31,55.31,0,0,1,20.32,11.46,64.78,64.78,0,0,1,13.38,16.38,80.93,80.93,0,0,1,10.06,31.94A23.82,23.82,0,0,1,615,380.87a15.21,15.21,0,0,1-4.28,5.83A9.8,9.8,0,0,1,608.6,388.07Z" transform="translate(-32.38 -79.06)"/></g><path class="cls-11" d="M522.21,378.85" transform="translate(-32.38 -79.06)"/><path class="cls-5" d="M121.57,362.25a19.27,19.27,0,0,1-1.45-1.71,32.79,32.79,0,0,0-4.34-4.22,42.37,42.37,0,0,0-18-8.23,82.74,82.74,0,0,0-20-1.28c-2.57.09-4.65.22-6.09.29a14.09,14.09,0,0,1-2.24.06,2.15,2.15,0,0,1,.57-.11l1.65-.2c1.43-.15,3.51-.34,6.09-.49a77.17,77.17,0,0,1,20.12,1.1A41.1,41.1,0,0,1,116.07,356a28.32,28.32,0,0,1,4.24,4.42,15,15,0,0,1,1,1.36A2.56,2.56,0,0,1,121.57,362.25Z" transform="translate(-32.38 -79.06)"/><path class="cls-5" d="M121.29,329c0,.18-10.68.17-23.85,0s-23.84-.49-23.84-.67,10.68-.16,23.85,0S121.3,328.77,121.29,329Z" transform="translate(-32.38 -79.06)"/><g class="cls-9"><path class="cls-10" d="M242.34,385.85a5.53,5.53,0,0,1,0-.61c0-.43,0-1,0-1.79s0-1.77-.12-2.92-.14-2.48-.29-4a102.15,102.15,0,0,0-5.43-24.7,107.6,107.6,0,0,0-7.11-16A84.51,84.51,0,0,0,218,319.4a49,49,0,0,0-17.9-12.66A63.42,63.42,0,0,0,176.94,302a74.61,74.61,0,0,0-12,.86,76.29,76.29,0,0,0-11.35,2.85,69.81,69.81,0,0,0-10.35,4.53l-1.22.65-1.18.71L138.49,313l-2.21,1.53-1.1.76-1,.83a62.8,62.8,0,0,0-13.68,14.52,69.15,69.15,0,0,0-7.92,15.53,72.36,72.36,0,0,0-3.47,14c-.23,2.11-.49,4.07-.53,5.89s-.09,3.48-.08,5,.16,2.82.21,4,.21,2.12.31,2.9.16,1.35.22,1.78,0,.61,0,.61,0-.2-.12-.6-.16-1-.28-1.77-.3-1.75-.37-2.9-.28-2.48-.27-4-.1-3.18,0-5,.27-3.81.49-5.93a70.69,70.69,0,0,1,3.4-14.08,69.09,69.09,0,0,1,7.9-15.68,63.41,63.41,0,0,1,13.76-14.69l1.05-.83,1.11-.77,2.23-1.56,2.35-1.43,1.18-.72,1.23-.65a68.93,68.93,0,0,1,10.43-4.59,76.56,76.56,0,0,1,11.46-2.89,74.84,74.84,0,0,1,12.13-.87,63.81,63.81,0,0,1,23.36,4.82A49.72,49.72,0,0,1,218.41,319a85.45,85.45,0,0,1,11.37,16.64,105.92,105.92,0,0,1,7.06,16.07,100,100,0,0,1,5.26,24.83A75.09,75.09,0,0,1,242.34,385.85Z" transform="translate(-32.38 -79.06)"/></g><path class="cls-5" d="M592.13,277.21a2.88,2.88,0,0,1,0,.65c-.06.5-.14,1.11-.24,1.86-.22,1.61-.55,3.94-.76,6.83a37.51,37.51,0,0,0,.46,10.11,21.29,21.29,0,0,0,5.63,10.79,30.16,30.16,0,0,0,10.28,6.75A54.24,54.24,0,0,0,617.2,317c2.85.57,5.18.92,6.78,1.18l1.85.31a3,3,0,0,1,.64.15,2,2,0,0,1-.66,0l-1.86-.19c-1.62-.19-4-.47-6.83-1a51.26,51.26,0,0,1-9.89-2.73,30.13,30.13,0,0,1-10.53-6.85A21.72,21.72,0,0,1,591,296.77a37,37,0,0,1-.34-10.25c.28-2.91.68-5.24,1-6.84.15-.8.28-1.42.37-1.84A2.42,2.42,0,0,1,592.13,277.21Z" transform="translate(-32.38 -79.06)"/><path class="cls-5" d="M364.86,301.69a1.84,1.84,0,0,1,.55-.05,8,8,0,0,1,1.59.08,3.07,3.07,0,0,1,2.17,1.32,3.32,3.32,0,0,1,.26,3.34,5,5,0,0,1-3.23,2.51,14.35,14.35,0,0,1-4.65.23l-10.52-.6a8.38,8.38,0,0,1-2.82-.53,3.51,3.51,0,0,1-2-2,3.06,3.06,0,0,1,.53-2.73,4.31,4.31,0,0,1,2.12-1.55,14.71,14.71,0,0,1,4.65-.47c1.44,0,2.79,0,4,.1l5.79.25a14.48,14.48,0,0,1,2.13.11,1.74,1.74,0,0,1-.55.07c-.36,0-.89.05-1.58.06-1.37,0-3.35,0-5.8,0-1.22,0-2.56,0-4,0a14.46,14.46,0,0,0-4.45.5,3.64,3.64,0,0,0-1.82,1.34,2.43,2.43,0,0,0-.43,2.18,2.89,2.89,0,0,0,1.68,1.64,7.81,7.81,0,0,0,2.61.47l10.51.65a14.43,14.43,0,0,0,4.49-.15,4.56,4.56,0,0,0,3-2.2,2.94,2.94,0,0,0-.16-2.94A2.85,2.85,0,0,0,367,302C365.63,301.72,364.85,301.76,364.86,301.69Z" transform="translate(-32.38 -79.06)"/><path class="cls-5" d="M506.33,300.52a1.84,1.84,0,0,1,.55,0,8,8,0,0,1,1.59.08,3.1,3.1,0,0,1,2.17,1.32,3.32,3.32,0,0,1,.26,3.34,5,5,0,0,1-3.23,2.51A14.35,14.35,0,0,1,503,308l-10.52-.6a8.62,8.62,0,0,1-2.82-.52,3.51,3.51,0,0,1-2-2,3,3,0,0,1,.52-2.73,4.37,4.37,0,0,1,2.12-1.55,15,15,0,0,1,4.65-.47c1.44,0,2.79.05,4,.1l5.8.25a19.13,19.13,0,0,1,2.12.11,1.74,1.74,0,0,1-.55.07c-.36,0-.89.05-1.58.07-1.37,0-3.35,0-5.8,0-1.22,0-2.56,0-4,0a14.46,14.46,0,0,0-4.45.5,3.6,3.6,0,0,0-1.82,1.35,2.41,2.41,0,0,0-.43,2.17,2.89,2.89,0,0,0,1.68,1.64,8.07,8.07,0,0,0,2.61.48l10.51.64a14.13,14.13,0,0,0,4.49-.15,4.58,4.58,0,0,0,3-2.19,3,3,0,0,0-.16-2.95,2.84,2.84,0,0,0-1.92-1.27C507.1,300.55,506.32,300.59,506.33,300.52Z" transform="translate(-32.38 -79.06)"/><path class="cls-5" d="M527.65,279.45s0,.19-.14.56-.25.94-.45,1.67l-1.79,6.46c-1.59,5.67-3.91,14-6.87,24.5v.06l-.06,0a55,55,0,0,0-13.76,9.18,57.43,57.43,0,0,0-6.41,6.82,67.35,67.35,0,0,0-5.6,8.31,82.05,82.05,0,0,0-8,20.34,98.08,98.08,0,0,0-3.1,23.92v.24h-.23l-100.32,0-129.4-.05h-.19l0-.18C248,354.8,246,333,244.73,317.75c-.62-7.6-1-13.54-1.32-17.58-.13-2-.23-3.56-.3-4.61S243,294,243,294s.06.53.14,1.57.21,2.59.36,4.6c.33,4,.82,10,1.44,17.57,1.31,15.19,3.42,37,6.71,63.54l-.2-.18,129.4,0,100.32,0-.23.24a98.73,98.73,0,0,1,3.14-24,82.69,82.69,0,0,1,8.12-20.43,67,67,0,0,1,5.65-8.35,58,58,0,0,1,6.46-6.84,55.33,55.33,0,0,1,13.87-9.18l-.08.09,7-24.46c.81-2.81,1.43-5,1.86-6.45.21-.72.37-1.27.49-1.65S527.65,279.45,527.65,279.45Z" transform="translate(-32.38 -79.06)"/><path class="cls-5" d="M383.44,284.52a1.17,1.17,0,0,1,0,.25c0,.19-.05.43-.08.73-.08.68-.2,1.62-.35,2.8s-.35,2.71-.53,4.44-.43,3.7-.61,5.89-.41,4.57-.56,7.14-.3,5.33-.44,8.22c-.19,5.79-.24,12.17,0,18.85s.72,13.05,1.31,18.81c.32,2.88.61,5.62,1,8.17s.7,4.93,1.05,7.1.71,4.11,1,5.83.58,3.19.83,4.39.4,2.1.53,2.77l.13.73a.77.77,0,0,1,0,.25.75.75,0,0,1-.08-.24q-.08-.28-.18-.72c-.15-.67-.36-1.59-.63-2.75s-.6-2.66-.92-4.38-.74-3.65-1.08-5.82-.77-4.54-1.11-7.1-.7-5.29-1-8.18c-.61-5.77-1.11-12.14-1.35-18.84s-.14-13.08.07-18.89c.15-2.9.27-5.65.49-8.23s.4-5,.63-7.15.47-4.15.68-5.88.43-3.22.62-4.43.34-2.12.45-2.79l.13-.73A.81.81,0,0,1,383.44,284.52Z" transform="translate(-32.38 -79.06)"/><path class="cls-5" d="M244.21,281.67c-3.2,2.4-8,3-11.9,2.19s-7-2.62-9-6.09l8.8-.39Z" transform="translate(-32.38 -79.06)"/><path class="cls-12" d="M232.09,277.38s8.88,5.41,11.46,4.67,44-33.46,68.95-46.09a29.54,29.54,0,0,0-7.59-1.72s-11.62,5.88-26.12,14.6c-11,6.64-22.25,13.6-27.5,16.8Z" transform="translate(-32.38 -79.06)"/><path class="cls-5" d="M260.49,284.32l-.29.18-.87.51-3.4,1.93-12.82,7.19,0,0h0c-8-.29-18.35-.5-30.18,0-5.91.26-12.19.68-18.73,1.35s-13.35,1.6-20.32,2.71c-12.21,1.9-23.72,4.31-34.26,6.24a234.45,234.45,0,0,1-28.25,3.39c-8.09.46-14.66.34-19.18.21-2.27-.07-4-.16-5.21-.23l-1.36-.09a4.35,4.35,0,0,1-.46,0s.16,0,.47,0l1.35,0c1.19,0,3,.1,5.21.14,4.53.07,11.08.13,19.16-.38A239.46,239.46,0,0,0,139.44,304c10.52-2,22.05-4.38,34.27-6.29,7-1.11,13.79-2,20.35-2.7s12.85-1.07,18.77-1.3c11.84-.46,22.17-.19,30.21.15l-.09,0,12.9-7,3.44-1.86.89-.47A1.35,1.35,0,0,1,260.49,284.32Z" transform="translate(-32.38 -79.06)"/><path class="cls-12" d="M269.92,285.35c62.88-2.81,189.72-5.15,252.6-8,0,0,2.07-6.91-3.85-11.23-2.15-1.57-15.21-11.45-30.46-17.26a234.16,234.16,0,0,0-58.08-13.57c-11.2-.91-31.69-1.74-31.69-1.74s-37.51,1.5-48,2.44a108.32,108.32,0,0,0-38,10.34C299.39,252.87,276.58,272,276.58,272l-16,13.38Z" transform="translate(-32.38 -79.06)"/><polygon class="cls-5" points="353.26 152.68 341.12 204.57 363.13 203.87 367.51 152.68 353.26 152.68"/><polygon class="cls-5" points="448.4 165.24 446.26 200.4 449.32 200.4 451.39 166.34 448.4 165.24"/><path class="cls-5" d="M272.3,273.45c1,1.29,6.55,13.85,6.55,13.85l-21.24-1.39Z" transform="translate(-32.38 -79.06)"/><path class="cls-13" d="M292.22,286.05,276,286.5c-2.13,0-3.81-3.82-3.74-8.47h0c.06-4.16,1.5-7.67,3.4-8.28l15.37-4.87Z" transform="translate(-32.38 -79.06)"/><path class="cls-12" d="M392.53,231.15c.14,0-1.58,11.84-3.83,26.41s-4.21,26.36-4.35,26.33,1.57-11.84,3.83-26.41S392.38,231.12,392.53,231.15Z" transform="translate(-32.38 -79.06)"/><path class="cls-12" d="M272.93,272.68a19.06,19.06,0,0,1-2.48,5.34,18.66,18.66,0,0,1-3.61,4.65c-.12-.1,1.5-2.16,3.17-4.92S272.79,272.62,272.93,272.68Z" transform="translate(-32.38 -79.06)"/><path class="cls-3" d="M362.68,241.18a2.18,2.18,0,0,1-.24.42l-.75,1.17c-.71,1.08-1.67,2.52-2.83,4.26-2.41,3.59-5.72,8.55-9.33,14.07s-6.82,10.54-9.14,14.18l-2.77,4.3c-.3.47-.56.85-.77,1.16a1.93,1.93,0,0,1-.29.39s.05-.16.2-.44l.69-1.21c.61-1.05,1.5-2.55,2.62-4.39,2.25-3.7,5.42-8.76,9-14.28s7-10.45,9.45-14c1.24-1.76,2.26-3.19,3-4.16.34-.44.61-.81.84-1.12S362.66,241.17,362.68,241.18Z" transform="translate(-32.38 -79.06)"/><path class="cls-3" d="M353.45,249a76.5,76.5,0,0,1-4.95,7.38,73.61,73.61,0,0,1-5.37,7.08,77.12,77.12,0,0,1,4.95-7.38A74.78,74.78,0,0,1,353.45,249Z" transform="translate(-32.38 -79.06)"/><path class="cls-1" d="M672.65,313.15s-5.22.33-9.16-1.36a12.08,12.08,0,0,1-6.27-16.21l.06-.12a11.31,11.31,0,0,1,9.91-6.4h2.18a13.91,13.91,0,0,1,1.42,5.2C671.38,299,672.27,306.27,672.65,313.15Z" transform="translate(-32.38 -79.06)"/><path class="cls-3" d="M441.66,242.86c.12.08-4.68,7.85-10.72,17.36s-11,17.15-11.16,17.07,4.67-7.84,10.72-17.35S441.54,242.78,441.66,242.86Z" transform="translate(-32.38 -79.06)"/><path class="cls-3" d="M440,252.67a46.87,46.87,0,0,1-3.58,6,46.8,46.8,0,0,1-4,5.75,47.73,47.73,0,0,1,3.59-6A47.1,47.1,0,0,1,440,252.67Z" transform="translate(-32.38 -79.06)"/><path class="cls-3" d="M288.51,267.89A41.34,41.34,0,0,1,276,271.54c0-.15,2.8-.82,6.24-1.83S288.46,267.75,288.51,267.89Z" transform="translate(-32.38 -79.06)"/><path class="cls-3" d="M375.56,289.86c0,.15-26.39.26-58.93.26s-58.94-.11-58.94-.26,26.38-.26,58.94-.26S375.56,289.72,375.56,289.86Z" transform="translate(-32.38 -79.06)"/><path class="cls-3" d="M366.9,300.34a69.24,69.24,0,0,1-8.56.26,69.22,69.22,0,0,1-8.57-.26,71.65,71.65,0,0,1,8.57-.26A71.68,71.68,0,0,1,366.9,300.34Z" transform="translate(-32.38 -79.06)"/><path class="cls-3" d="M175.28,312.22a3.45,3.45,0,0,1-.66,0c-.43,0-1.06,0-1.87,0a56.34,56.34,0,0,0-6.84.42,52.61,52.61,0,0,0-37.41,22.84,55.9,55.9,0,0,0-3.5,5.89c-.39.72-.64,1.29-.84,1.67a2.56,2.56,0,0,1-.32.57,3.88,3.88,0,0,1,.23-.61c.17-.39.39-1,.75-1.72a47.93,47.93,0,0,1,3.37-6,51.46,51.46,0,0,1,37.68-23,46.89,46.89,0,0,1,6.89-.26c.81,0,1.44.09,1.87.12A2.68,2.68,0,0,1,175.28,312.22Z" transform="translate(-32.38 -79.06)"/><path class="cls-3" d="M476.7,287.09c0,.14-17.47.26-39,.26s-39-.12-39-.26,17.46-.26,39-.26S476.7,286.94,476.7,287.09Z" transform="translate(-32.38 -79.06)"/><path class="cls-3" d="M510.92,298.81a16.61,16.61,0,0,1-2.82,0c-1.74,0-4.14-.09-6.79-.11s-5.05,0-6.79,0a16,16,0,0,1-2.82-.05,14.32,14.32,0,0,1,2.81-.32c1.74-.11,4.14-.2,6.8-.19s5.07.13,6.81.27A13.57,13.57,0,0,1,510.92,298.81Z" transform="translate(-32.38 -79.06)"/></g><g id="Plant"><path class="cls-14" d="M698.5,357a10.79,10.79,0,0,1,5.47,6.43,19.13,19.13,0,0,1,.58,8.58c-.74,5.55-4,11.1-7.49,15.48-4.6-4.17-5.55-11.32-5.8-15-.39-5.77,2.4-16.46,7.24-15.51" transform="translate(-32.38 -79.06)"/><path class="cls-15" d="M702.33,396.79a9.18,9.18,0,0,1,3.14-8.68,12.2,12.2,0,0,1,9-2.64,5.11,5.11,0,0,1,3.92,1.85,3.91,3.91,0,0,1,0,4,7.93,7.93,0,0,1-3,2.85c-4.1,2.47-8.53,4.11-13.09,2.64" transform="translate(-32.38 -79.06)"/><path class="cls-5" d="M696,413.73a6.16,6.16,0,0,1,.18-1.14c.17-.8.38-1.84.63-3.08a32.15,32.15,0,0,1,3.37-9.8,19.82,19.82,0,0,1,7.22-7.39,13,13,0,0,1,2.91-1.22,6.31,6.31,0,0,1,.84-.2c.19,0,.29,0,.29,0a20.84,20.84,0,0,0-3.9,1.7,20.38,20.38,0,0,0-7,7.34,35,35,0,0,0-3.44,9.66c-.31,1.29-.56,2.34-.75,3.05A7.2,7.2,0,0,1,696,413.73Z" transform="translate(-32.38 -79.06)"/><path class="cls-5" d="M697.09,365.35a2,2,0,0,1,0,.5c0,.37,0,.84.06,1.43,0,1.25.08,3.05.11,5.28.06,4.46.06,10.62-.1,17.42s-.44,12.95-.7,17.41c-.14,2.22-.26,4-.36,5.26,0,.59-.09,1.06-.13,1.43a1.82,1.82,0,0,1-.07.5,3.8,3.8,0,0,1,0-.5c0-.37,0-.85,0-1.44.06-1.29.13-3.08.23-5.27.19-4.45.43-10.6.59-17.4s.2-13,.21-17.41c0-2.19,0-4,0-5.28,0-.59,0-1.06,0-1.43A3.21,3.21,0,0,1,697.09,365.35Z" transform="translate(-32.38 -79.06)"/><path class="cls-16" d="M694.17,400a21.52,21.52,0,0,0-11.45-16c-1.55-.78-3.58-1.3-4.89-.17s-1.06,3.24-.46,4.87a18.37,18.37,0,0,0,16.68,11.73" transform="translate(-32.38 -79.06)"/><path class="cls-5" d="M683.38,389.34a5.7,5.7,0,0,1,1,.45,12.62,12.62,0,0,1,1.11.62c.41.27.92.54,1.41.92a18.12,18.12,0,0,1,1.61,1.27,19.43,19.43,0,0,1,1.71,1.61,22,22,0,0,1,5.32,9.28,22.12,22.12,0,0,1,.5,2.29,16,16,0,0,1,.24,2,14.21,14.21,0,0,1,.05,1.68,11.25,11.25,0,0,1-.06,1.27,5.06,5.06,0,0,1-.14,1.08c-.09,0,.1-1.55-.13-4a18.2,18.2,0,0,0-.29-2,21.91,21.91,0,0,0-.53-2.25,24.49,24.49,0,0,0-2.08-4.87,24.81,24.81,0,0,0-3.15-4.25,20.88,20.88,0,0,0-1.66-1.62,20.12,20.12,0,0,0-1.56-1.28C684.74,390.09,683.34,389.42,683.38,389.34Z" transform="translate(-32.38 -79.06)"/></g></svg>