<svg id="Layer_1" data-name="Layer 1" xmlns="http://www.w3.org/2000/svg" viewBox="0 0 512 510.71"><defs><style>.cls-1{fill:#0099f7;}</style></defs><path class="cls-1" d="M301.7,449.52a19.33,19.33,0,0,0,26.95,14.8l81.6-36.05a8.51,8.51,0,0,0,4.64-10.53L374,296.07a41.23,41.23,0,0,0-46.08-27.3l-12.79,2.29a40.77,40.77,0,0,0-33.27,46.5Zm20.07-.81a2.21,2.21,0,0,1-2-.09,2.25,2.25,0,0,1-1.17-1.7L298.62,315.07a24.21,24.21,0,0,1,.29-8.53l14.43,11.4a44.63,44.63,0,0,1,14.93,21.21l31.27,92.92Zm-3.72-160.79,12.79-2.29a23.34,23.34,0,0,1,4.17-.37,24.11,24.11,0,0,1,22.74,16.29l38.49,114.32-21.05,9.29-30.76-91.4a61.37,61.37,0,0,0-20.56-29.19L308.23,292.2A24,24,0,0,1,318.05,287.92Z" transform="translate(0 -1.11)"/><path class="cls-1" d="M21.87,81l127.4,37.54a13.31,13.31,0,0,1,4.71,2.51l44.93,37.44,7.25,6.06,58.71,305.17a51.77,51.77,0,0,0,71.84,37.61l81.86-36.16a28.51,28.51,0,0,0,32.58,8l43.18-17.71a28.45,28.45,0,0,0,15.54-37.11l-78.63-192,5.83-6.75A30.22,30.22,0,0,0,434,183.11l-90-78a30.19,30.19,0,0,0-42.6,3.08l-14.55,16.83-32.7-27.25h-.05L193.55,48.55A30,30,0,0,0,183,43L45,2.34A30.18,30.18,0,0,0,7.56,22.76L1.45,43.5A30.17,30.17,0,0,0,21.87,81ZM294.31,142.6l20-23.17a13.11,13.11,0,0,1,18.51-1.34l90,77.92a13.13,13.13,0,0,1,1.33,18.5l-9.26,10.71a8.55,8.55,0,0,0-1.46,8.82l80.64,196.75a11.4,11.4,0,0,1-6.22,14.85l-43.2,17.7a11.38,11.38,0,0,1-14.85-6.23,8.53,8.53,0,0,0-11.35-4.58L329.82,491.7a34.77,34.77,0,0,1-48.18-25.24L222.36,158.31a8.6,8.6,0,0,0-2.92-4.94l-2.68-2.24,32.68-35,33,27.45a8.53,8.53,0,0,0,11.9-1ZM17.81,48.35l6.1-20.76a13.12,13.12,0,0,1,16.3-8.88l137.92,40.6a13,13,0,0,1,4.57,2.41l53.54,43.51-32.6,35-38.74-32.3a30.08,30.08,0,0,0-10.8-5.76L26.69,64.63A13.12,13.12,0,0,1,17.81,48.35Z" transform="translate(0 -1.11)"/><path class="cls-1" d="M59.74,294.33a58.43,58.43,0,0,0,59.72-59.72c0-27.2-33.06-76.32-46.83-92.21a17.59,17.59,0,0,0-25.78,0C33.07,158.29,0,207.41,0,234.61a58.42,58.42,0,0,0,59.72,59.72Zm0-140.77c15.05,17.35,42.65,61.3,42.65,81.05a41.26,41.26,0,0,1-42.65,42.66,41.26,41.26,0,0,1-42.66-42.66C17.08,214.86,44.69,170.92,59.74,153.56Z" transform="translate(0 -1.11)"/><path class="cls-1" d="M244.61,160.22a8.55,8.55,0,0,0-6.16,10.4l4.27,16.71a8.54,8.54,0,0,0,8.26,6.41,8,8,0,0,0,2.12-.26,8.53,8.53,0,0,0,6.15-10.38L255,166.39a8.55,8.55,0,0,0-10.38-6.17Z" transform="translate(0 -1.11)"/><path class="cls-1" d="M251.92,215.24,264,266.43a8.53,8.53,0,0,0,8.3,6.57,8.08,8.08,0,0,0,2-.23,8.54,8.54,0,0,0,6.36-10.24l-12.09-51.19a8.54,8.54,0,1,0-16.62,3.93Z" transform="translate(0 -1.11)"/></svg>