<svg id="Capa_1" data-name="Capa 1" xmlns="http://www.w3.org/2000/svg" viewBox="0 0 512 512"><defs><style>.cls-1{fill:#0099f7;}</style></defs><path class="cls-1" d="M256,93.3a68.14,68.14,0,0,0-39,12.19A7.57,7.57,0,0,0,215.05,116a7.44,7.44,0,0,0,10.4,1.94A53.41,53.41,0,0,1,256,108.37c29.75,0,54,24.38,54,54.36s-24.21,54.37-54,54.37-54-24.39-54-54.37a54,54,0,0,1,6.06-25,7.58,7.58,0,0,0-3.18-10.17,7.47,7.47,0,0,0-10.09,3.21,70,70,0,0,0-7.75,32c0,38.29,30.92,69.44,68.92,69.44s68.92-31.15,68.92-69.44S294,93.3,256,93.3Z" transform="translate(0)"/><path class="cls-1" d="M511.43,501.57,437.62,322.91a7.47,7.47,0,0,0-6.9-4.64H357.17a381.09,381.09,0,0,0,35.51-58c16.48-33.8,24.84-66.61,24.84-97.55C417.52,73,345.06,0,256,0S94.48,73,94.48,162.73c0,30.94,8.36,63.76,24.84,97.55a381.09,381.09,0,0,0,35.51,58H81.28a7.47,7.47,0,0,0-6.9,4.64L24.09,444.65a7.55,7.55,0,0,0,4,9.85,7.29,7.29,0,0,0,2.87.58,7.46,7.46,0,0,0,6.9-4.64l7.18-17.37H96L69.59,496.93H18.69l7.65-18.51a7.56,7.56,0,0,0-4-9.85,7.46,7.46,0,0,0-9.78,4.06l-12,28.94a7.59,7.59,0,0,0,.69,7.08A7.46,7.46,0,0,0,7.48,512h497a7.46,7.46,0,0,0,6.22-3.35A7.59,7.59,0,0,0,511.43,501.57Zm-402-338.84c0-81.42,65.75-147.66,146.56-147.66S402.56,81.31,402.56,162.73c0,34.14-11.77,88.7-66.24,158.23l-.16.2q-4.17,5.32-8.68,10.76A575.46,575.46,0,0,1,256,403.67a573.31,573.31,0,0,1-71.28-71.52q-4.64-5.56-8.89-11c-.05-.06-.09-.12-.14-.17C121.22,251.45,109.44,196.89,109.44,162.73ZM86.27,333.33h50.91l-18.57,44.95H67.7ZM130,496.93l46.74-113.15,133,113.15Zm202.93,0h0L178.58,365.63a7.45,7.45,0,0,0-11.72,2.86L113.8,496.93h-28l28.3-68.5a7.58,7.58,0,0,0-.68-7.08,7.47,7.47,0,0,0-6.22-3.35H51.3l10.18-24.65H123.6a7.47,7.47,0,0,0,6.9-4.64l22.88-55.38h13c2.26,2.83,4.55,5.66,6.9,8.49,38.58,46.43,76.57,76.24,78.17,77.49a7.43,7.43,0,0,0,9.16,0c.87-.68,12.75-10,29.67-26h84.68a7.54,7.54,0,0,0,0-15.07H305.66c10.37-10.5,21.7-22.75,33.09-36.45,2.36-2.83,4.65-5.66,6.9-8.5h80.08l18.57,44.95H404.84a7.54,7.54,0,0,0,0,15.07h45.68L460.7,418H306.63a7.47,7.47,0,0,0-7,4.9,7.57,7.57,0,0,0,2.1,8.32l75.13,65.71Zm66.75,0-73-63.86H466.93l26.38,63.86Z" transform="translate(0)"/></svg>