<svg id="Layer_1" data-name="Layer 1" xmlns="http://www.w3.org/2000/svg" viewBox="0 0 431.86 480.11"><defs><style>.cls-1{fill:#0099f7;}</style></defs><g id="Outline"><path class="cls-1" d="M336,232H208a8,8,0,0,1,0-16H336a8,8,0,0,1,0,16Z" transform="translate(-40.07 -15.89)"/><path class="cls-1" d="M304,264H176a8,8,0,0,1,0-16H304a8,8,0,0,1,0,16Z" transform="translate(-40.07 -15.89)"/><path class="cls-1" d="M208,168H176a8,8,0,0,1,0-16h32a8,8,0,0,1,0,16Z" transform="translate(-40.07 -15.89)"/><path class="cls-1" d="M208,136H176a8,8,0,0,1,0-16h32a8,8,0,0,1,0,16Z" transform="translate(-40.07 -15.89)"/><path class="cls-1" d="M272,328H240a72.1,72.1,0,0,1-72-72V112a72.1,72.1,0,0,1,72-72h32a72.1,72.1,0,0,1,72,72v16a8,8,0,0,1-8,8H304a8,8,0,0,1,0-16h24v-8a56.07,56.07,0,0,0-56-56H240a56.07,56.07,0,0,0-56,56V256a56.07,56.07,0,0,0,56,56h32a56.07,56.07,0,0,0,56-56V168H304a8,8,0,0,1,0-16h32a8,8,0,0,1,8,8v96A72.1,72.1,0,0,1,272,328Z" transform="translate(-40.07 -15.89)"/><path class="cls-1" d="M333.9,104H304a8,8,0,0,1,0-16h29.9a8,8,0,0,1,0,16Z" transform="translate(-40.07 -15.89)"/><path class="cls-1" d="M208,104H178.1a8,8,0,0,1,0-16H208a8,8,0,0,1,0,16Z" transform="translate(-40.07 -15.89)"/><path class="cls-1" d="M272,72a8,8,0,0,1-8-8V50.1a8,8,0,0,1,16,0V64A8,8,0,0,1,272,72Z" transform="translate(-40.07 -15.89)"/><path class="cls-1" d="M240,72a8,8,0,0,1-8-8V50.1a8,8,0,0,1,16,0V64A8,8,0,0,1,240,72Z" transform="translate(-40.07 -15.89)"/><path class="cls-1" d="M140.12,213a8,8,0,0,1-5.66-2.35,104.11,104.11,0,0,1,0-147.07A8,8,0,1,1,146,74.72l-.19.19a88.08,88.08,0,0,0,0,124.45A8,8,0,0,1,140.12,213Z" transform="translate(-40.07 -15.89)"/><path class="cls-1" d="M371.88,213a8,8,0,0,1-5.66-13.66,88.08,88.08,0,0,0,0-124.45A8,8,0,0,1,377.34,63.4l.2.2a104.11,104.11,0,0,1,0,147.07A8,8,0,0,1,371.88,213Z" transform="translate(-40.07 -15.89)"/><path class="cls-1" d="M117.5,235.65a8,8,0,0,1-5.67-2.35,136,136,0,0,1,0-192.32,8,8,0,1,1,11.32,11.31,120,120,0,0,0,0,169.7,8,8,0,0,1-5.65,13.66Z" transform="translate(-40.07 -15.89)"/><path class="cls-1" d="M394.5,235.65A8,8,0,0,1,388.85,222a120,120,0,0,0,0-169.7A8,8,0,1,1,400.17,41h0a136,136,0,0,1,0,192.32A8,8,0,0,1,394.5,235.65Z" transform="translate(-40.07 -15.89)"/><path class="cls-1" d="M94.86,258.27a7.93,7.93,0,0,1-5.65-2.34,168.17,168.17,0,0,1,0-237.6,8,8,0,1,1,11.51,11.11c-.07.07-.13.14-.2.2a152,152,0,0,0,0,215,8,8,0,0,1-5.66,13.66Z" transform="translate(-40.07 -15.89)"/><path class="cls-1" d="M417.14,258.27a8,8,0,0,1-5.66-13.65,152,152,0,0,0,0-215A8,8,0,1,1,422.6,18.15l.19.19a168.17,168.17,0,0,1,0,237.6A7.93,7.93,0,0,1,417.14,258.27Z" transform="translate(-40.07 -15.89)"/><path class="cls-1" d="M208,200H176a8,8,0,0,1,0-16h32a8,8,0,0,1,0,16Z" transform="translate(-40.07 -15.89)"/><path class="cls-1" d="M336,200H304a8,8,0,0,1,0-16h32a8,8,0,0,1,0,16Z" transform="translate(-40.07 -15.89)"/><path class="cls-1" d="M272,136H240a8,8,0,0,1,0-16h32a8,8,0,0,1,0,16Z" transform="translate(-40.07 -15.89)"/><path class="cls-1" d="M272,168H240a8,8,0,0,1,0-16h32a8,8,0,0,1,0,16Z" transform="translate(-40.07 -15.89)"/><path class="cls-1" d="M272,200H240a8,8,0,0,1,0-16h32a8,8,0,0,1,0,16Z" transform="translate(-40.07 -15.89)"/><path class="cls-1" d="M272,104H240a8,8,0,0,1,0-16h32a8,8,0,0,1,0,16Z" transform="translate(-40.07 -15.89)"/><path class="cls-1" d="M272,368H240a32,32,0,0,1-32-32V315.3h16V336a16,16,0,0,0,16,16h32a16,16,0,0,0,16-16V315.3h16V336A32,32,0,0,1,272,368Z" transform="translate(-40.07 -15.89)"/><path class="cls-1" d="M272,358.53h16V440H272Z" transform="translate(-40.07 -15.89)"/><path class="cls-1" d="M232,448a8,8,0,0,1-8-8V390.53a8,8,0,0,1,16,0V440A8,8,0,0,1,232,448Z" transform="translate(-40.07 -15.89)"/><path class="cls-1" d="M352,496H216a8,8,0,0,1,0-16H344v-8a24,24,0,0,0-24-24H192a24,24,0,0,0-24,24v8h16a8,8,0,0,1,0,16H160a8,8,0,0,1-8-8V472a40.05,40.05,0,0,1,40-40H320a40.05,40.05,0,0,1,40,40v16A8,8,0,0,1,352,496Z" transform="translate(-40.07 -15.89)"/></g></svg>