<svg xmlns="http://www.w3.org/2000/svg" xmlns:xlink="http://www.w3.org/1999/xlink" viewBox="0 0 453.38 462.45"><defs><style>.cls-1{fill:#f5f5f5;}.cls-2{fill:#ebebeb;}.cls-3{fill:#e0e0e0;}.cls-4{fill:#263238;}.cls-5{fill:url(#linear-gradient);}.cls-6{fill:url(#linear-gradient-2);}.cls-7{fill:url(#linear-gradient-3);}.cls-8{fill:#4f5151;}.cls-9{fill:#8b8e8e;}.cls-10{fill:#434444;}.cls-11{fill:#b6b7b7;}.cls-12{fill:#c9c9c9;}.cls-13{fill:url(#linear-gradient-4);}.cls-14{fill:#767777;}.cls-15{fill:url(#linear-gradient-5);}.cls-16{opacity:0.28;}.cls-17{fill:#fff;}.cls-18{opacity:0.47;}</style><linearGradient id="linear-gradient" x1="402.25" y1="74.2" x2="417.6" y2="74.2" gradientTransform="matrix(1, 0, 0, -1, 0, 502.11)" gradientUnits="userSpaceOnUse"><stop offset="0.01" stop-color="#00a3df"/><stop offset="0.08" stop-color="#00a3df"/><stop offset="0.09" stop-color="#00a3df"/><stop offset="0.25" stop-color="#00a0dd"/><stop offset="0.38" stop-color="#0095d5"/><stop offset="0.5" stop-color="#0084c8"/><stop offset="0.6" stop-color="#006fb9"/><stop offset="0.76" stop-color="#0f5caa"/><stop offset="1" stop-color="#2b388f"/></linearGradient><linearGradient id="linear-gradient-2" x1="419.04" y1="55.04" x2="436.91" y2="55.04" xlink:href="#linear-gradient"/><linearGradient id="linear-gradient-3" x1="389.26" y1="50.26" x2="411.15" y2="50.26" xlink:href="#linear-gradient"/><linearGradient id="linear-gradient-4" x1="27.75" y1="174.81" x2="294.65" y2="174.81" gradientTransform="matrix(1, 0, 0, 1, 0, 0)" xlink:href="#linear-gradient"/><linearGradient id="linear-gradient-5" x1="181.78" y1="188.53" x2="354.77" y2="188.53" gradientTransform="matrix(1, 0, 0, 1, 0, 0)" xlink:href="#linear-gradient"/></defs><g id="Background_Complete" data-name="Background Complete"><polygon class="cls-1" points="238.04 208.57 238.04 208.58 238.07 208.58 238.04 208.57"/><polygon class="cls-1" points="237.96 208.58 238.03 208.58 237.98 208.55 237.96 208.58"/><polygon class="cls-1" points="237.87 208.52 237.81 208.58 237.94 208.58 237.87 208.52"/><polygon class="cls-1" points="237.75 208.5 237.77 208.49 237.75 208.48 237.75 208.5"/><polygon class="cls-1" points="237.73 208.33 237.73 208.34 237.75 208.36 237.73 208.33"/><polygon class="cls-1" points="238.02 208.5 238 208.52 238.03 208.53 238.02 208.5"/><polygon class="cls-1" points="237.7 208.54 237.69 208.47 237.33 208.36 237.65 208.57 237.7 208.54"/><polygon class="cls-1" points="237.71 208.47 237.7 208.54 237.75 208.51 237.71 208.47"/><polygon class="cls-1" points="237.99 208.47 237.95 208.49 237.98 208.5 237.99 208.47"/><polygon class="cls-1" points="237.96 208.55 237.94 208.54 237.95 208.57 237.96 208.55"/><path class="cls-1" d="M226.61,14.49l15,104.16.42-.06,14.57,102.08L271,118.57l.23,0L285.61,16.12A223.49,223.49,0,0,0,250,13.27,225.94,225.94,0,0,0,226.61,14.49Z" transform="translate(-18.7 -13.27)"/><path class="cls-1" d="M392,64.56A222.8,222.8,0,0,0,342.1,33.21l-42.53,93.7.23.1-43,94.51Z" transform="translate(-18.7 -13.27)"/><path class="cls-1" d="M156.8,192.58h0l99,29h-.39l1,.28h0l.05,0h0l.07,0h0v0l0,0,.05-.07.08.07h-.13l.07.05.05,0v0h.05l.06,0v0l0,0h0l-.06,0,.4.18-.33-.21L356.38,251c0,.08-.05.15-.07.22l110.48,32.47a222.46,222.46,0,0,0,5.3-48.34c0-4.63-.16-9.23-.44-13.79H360.56v.17l-103.74.12h0l0,0v-.09l.46-.13-.38.24.93-.27h-.45l202.23-59.91a221.71,221.71,0,0,0-27.49-53.5L257.26,221.56h-.35l.14-.18-.26.18h0v0l0,0,.09-.56-.19.42,0,.14-.12.09,0-.09h-.09l0-.15-.16-.35.06.46,0,0h0l-.21-.14.11.13h-.35L71.7,102.93a221.68,221.68,0,0,0-30.24,55.88Zm99.95,29.26h0Zm-.09,0,0,0,.05,0Zm.06-.07v0h0Zm0,0,0,0,0,0Zm0,.07v0Zm-.2,0v0h0Zm0-.17,0,0,0,0Zm0,.14,0,0,0,0Zm0,0v.07l-.05,0-.32-.21Z" transform="translate(-18.7 -13.27)"/><path class="cls-1" d="M188.38,143.1h0l67.92,78.38-43.08-94.4,0,0-45-98.27a221.85,221.85,0,0,0-53,30Z" transform="translate(-18.7 -13.27)"/><path class="cls-1" d="M344.06,278.18a.41.41,0,0,0-.05.09l-87-56,67.85,78.26-.17.15L405.4,394a222.6,222.6,0,0,0,38.93-51.07Z" transform="translate(-18.7 -13.27)"/><polygon class="cls-1" points="238.01 208.8 237.99 208.79 238.01 208.81 238.01 208.8"/><polygon class="cls-1" points="237.76 208.6 237.75 208.63 237.71 208.61 237.72 208.69 237.73 208.68 237.73 208.68 237.8 208.66 237.76 208.64 237.79 208.61 237.81 208.62 237.8 208.6 237.81 208.58 237.71 208.58 237.76 208.6"/><polygon class="cls-1" points="237.68 208.7 237.69 208.6 237.67 208.58 237.27 208.82 237.68 208.7"/><path class="cls-1" d="M256.14,222.28l-86.79,56.31a3.45,3.45,0,0,1-.2-.32L59.36,349.32A223.08,223.08,0,0,0,102,401l99.63-115.41Z" transform="translate(-18.7 -13.27)"/><path class="cls-1" d="M156.87,251.31l99.47-29.46-228,.24c-.26,4.39-.41,8.81-.41,13.26a222.8,222.8,0,0,0,6.19,52.2l122.77-36.22Z" transform="translate(-18.7 -13.27)"/><path class="cls-1" d="M256.29,222.63l-97.87,215.1a220.77,220.77,0,0,0,64.9,18.11Z" transform="translate(-18.7 -13.27)"/><polygon class="cls-1" points="238.03 208.63 238.01 208.65 238.03 208.68 238.03 208.63"/><path class="cls-1" d="M256.84,222.61l33,231.26a220.27,220.27,0,0,0,62.74-21.51Z" transform="translate(-18.7 -13.27)"/><polygon class="cls-1" points="237.77 208.97 237.88 209.75 237.98 209 237.87 208.75 237.77 208.97"/><polygon class="cls-1" points="237.99 208.66 237.98 208.67 238 208.67 237.99 208.66"/></g><g id="Rock"><polygon class="cls-2" points="79.92 462.19 97.53 431.9 122.94 424.77 159.47 375.75 287.33 322.29 345.71 316.42 341.92 330.92 314.3 364.17 358.7 462.19 79.92 462.19"/><polygon class="cls-3" points="97.53 431.9 155.09 450.75 159.81 462.19 79.92 462.19 97.53 431.9"/><polygon class="cls-3" points="122.94 424.77 159.81 438.37 159.47 375.75 122.94 424.77"/><polygon class="cls-3" points="270.16 461 242.96 415.81 195.89 398.96 255.51 409.47 299.87 462.19 270.16 461"/><path class="cls-4" d="M277.14,424.12a5.07,5.07,0,0,1-.64-.09l-1.83-.36L268,422.3c-5.67-1.16-13.51-2.69-22.21-4.21s-16.6-2.73-22.32-3.57l-6.78-1-1.85-.29a2.73,2.73,0,0,1-.63-.13,2.66,2.66,0,0,1,.65,0l1.85.19c1.61.17,3.94.45,6.81.82,5.74.74,13.66,1.9,22.36,3.42s16.54,3.11,22.2,4.36c2.83.62,5.11,1.14,6.68,1.53l1.81.45A2.49,2.49,0,0,1,277.14,424.12Z" transform="translate(-18.7 -13.27)"/><path class="cls-4" d="M288.87,474.26s-.19-.26-.53-.8l-1.47-2.38c-1.28-2.11-3.15-5.18-5.54-9.09l-19.85-32.8.11.09-47.08-16.81.32-.15-5.63,13.44-20.53,48.9-.21.5-.22-.5-9.91-23,.11.11-26.93-10L144.18,439l-1.9-.73c-.43-.17-.64-.27-.64-.27l.66.22,1.92.68,7.37,2.66,27,9.86.08,0,0,.08,10,22.92h-.43c6.13-14.63,13.1-31.28,20.48-48.92l5.63-13.44.1-.22.23.08,47.06,16.9.07,0,0,.07,19.69,32.89c2.35,3.94,4.18,7,5.45,9.15l1.41,2.42C288.72,474,288.87,474.26,288.87,474.26Z" transform="translate(-18.7 -13.27)"/><polygon class="cls-3" points="314.3 364.17 256.63 364.17 345.71 316.42 341.92 330.92 314.3 364.17"/><path class="cls-3" d="M342,380.06s4.58,5.84,10.35,13.46c20.18,26.65,63,81.94,63,81.94h-38l-45.89-98Z" transform="translate(-18.7 -13.27)"/><path class="cls-4" d="M377.4,475.46a3.35,3.35,0,0,1-.2-.37l-.55-1.12c-.48-1-1.18-2.45-2.07-4.3-1.78-3.78-4.34-9.2-7.51-15.88-6.3-13.45-15-32-24.6-52.47l-10.66-22.87.21.15-40.71-1.49-11.76-.53-3.14-.18-.8-.08-.27,0L332,378.1h.15l.06.13L343,401.1c9.54,20.5,18.19,39.07,24.46,52.53l7.36,15.95c.85,1.87,1.51,3.33,2,4.35.21.48.37.86.5,1.14A2,2,0,0,1,377.4,475.46Z" transform="translate(-18.7 -13.27)"/><polygon class="cls-3" points="299.87 302.4 309.35 292.49 317.24 297.45 299.87 302.4"/><polygon class="cls-3" points="285.05 306.17 285.05 296.12 291.3 297.45 285.05 306.17"/><path class="cls-4" d="M98.62,475.46l316.77-.25-.2.4L357,399.93l-15.16-19.71.14.09-9-2.63-.38-.11.25-.3L360.42,344l-.05.1q1.92-7.31,3.8-14.5l.27.32-58.38,5.85.07,0L178.24,389.19l.08-.06c-14,18.79-26.28,35.21-36.57,49l0,0h0l-25.42,7.1.06-.05q-17.13,29.3-17.7,30.25l17.52-30.35,0,0h0l25.39-7.16-.07.05,36.49-49,0,0,0,0,127.84-53.52,0,0h0l58.38-5.87.36,0-.09.35q-1.87,7.2-3.79,14.5l0,.06,0,0L333.2,377.6l-.12-.41,9,2.62.08,0,.06.06,15.15,19.71,58.2,75.7.32.4h-.52Z" transform="translate(-18.7 -13.27)"/></g><g id="Plant"><g id="Plant-2" data-name="Plant"><path class="cls-5" d="M408.08,410.77a12.18,12.18,0,0,1,7.28,6.17,21.61,21.61,0,0,1,2.23,9.47c.2,6.33-2.42,13.13-5.51,18.66-5.91-3.81-8.28-11.62-9.23-15.65-1.5-6.38-.35-18.82,5.23-18.65" transform="translate(-18.7 -13.27)"/><path class="cls-6" d="M419.67,454.46a10.41,10.41,0,0,1,1.9-10.27,13.82,13.82,0,0,1,9.62-4.62c1.69-.12,3.56.11,4.71,1.34a4.45,4.45,0,0,1,.72,4.45,9,9,0,0,1-2.83,3.73c-4.12,3.53-8.76,6.17-14.12,5.37" transform="translate(-18.7 -13.27)"/><path class="cls-4" d="M415.73,474.53a7.35,7.35,0,0,1,0-1.31c0-.92.08-2.12.13-3.55a36.62,36.62,0,0,1,2-11.57,22.36,22.36,0,0,1,6.7-9.58,15.43,15.43,0,0,1,3-1.9,8.32,8.32,0,0,1,.9-.37q.31-.12.33-.09a24.08,24.08,0,0,0-4,2.62,23.08,23.08,0,0,0-6.48,9.49,39.25,39.25,0,0,0-2.07,11.42c-.11,1.49-.19,2.71-.28,3.54A7.45,7.45,0,0,1,415.73,474.53Z" transform="translate(-18.7 -13.27)"/><path class="cls-4" d="M408,420.32a2.28,2.28,0,0,1,.15.55q.12.61.33,1.59c.28,1.38.65,3.39,1.1,5.87.89,5,2,11.84,3.09,19.46s1.89,14.55,2.41,19.56c.26,2.51.46,4.54.57,5.95q.07,1,.12,1.62a2.47,2.47,0,0,1,0,.57,2.33,2.33,0,0,1-.1-.56c-.05-.42-.12-.95-.21-1.61-.18-1.46-.42-3.47-.72-5.93-.6-5-1.47-11.92-2.54-19.54s-2.15-14.5-3-19.47c-.4-2.45-.72-4.45-1-5.89-.1-.66-.18-1.19-.24-1.61A2,2,0,0,1,408,420.32Z" transform="translate(-18.7 -13.27)"/><path class="cls-7" d="M411.15,459.57a24.36,24.36,0,0,0-15.72-15.73c-1.87-.58-4.24-.8-5.49.71s-.59,3.81.38,5.52a20.79,20.79,0,0,0,20.78,10" transform="translate(-18.7 -13.27)"/><path class="cls-4" d="M397.15,449.63a6.72,6.72,0,0,1,1.18.32,11.57,11.57,0,0,1,1.35.49c.51.23,1.12.43,1.75.77a26.83,26.83,0,0,1,4.24,2.6,24.88,24.88,0,0,1,7.64,9.38,24,24,0,0,1,1,2.47,22.35,22.35,0,0,1,.65,2.23,16.38,16.38,0,0,1,.36,1.87,11.34,11.34,0,0,1,.17,1.43,6.06,6.06,0,0,1,0,1.23c-.1,0-.18-1.74-.88-4.45a20.67,20.67,0,0,0-.69-2.18,26.15,26.15,0,0,0-1-2.42,25.75,25.75,0,0,0-7.52-9.22,25.61,25.61,0,0,0-2.15-1.5c-.68-.46-1.36-.81-2-1.15C398.8,450.21,397.11,449.72,397.15,449.63Z" transform="translate(-18.7 -13.27)"/></g></g><g id="Character"><path class="cls-4" d="M140.32,386.28c.06.13-20.11,9.83-45,21.66S50.05,429.25,50,429.12,70.1,419.3,95,407.46,140.26,386.15,140.32,386.28Z" transform="translate(-18.7 -13.27)"/><path class="cls-4" d="M133.5,383.45c.06.13-8.89,4.18-20,9.05s-20.15,8.71-20.21,8.57,8.89-4.18,20-9.05S133.45,383.32,133.5,383.45Z" transform="translate(-18.7 -13.27)"/><path class="cls-8" d="M111.85,210.06s-43.11,17.87-68.16,41.58C20.63,273.47,18.7,298,18.7,298l8.08,13.2s.06-30.42,23.48-50.56c31.55-27.11,71.91-28.4,71.91-28.4Z" transform="translate(-18.7 -13.27)"/><path class="cls-9" d="M116.14,308.55,97.7,313.38l.79-18.52L84.22,280.77l1.87-1.89,12.55,12.39.73-17.18,2.66.11-.83,19.59Zm-15.63,1.35L111,307.16,101,297.38Z" transform="translate(-18.7 -13.27)"/><path class="cls-9" d="M124.47,363.1l-2.65.16-1.11-19.58-16.34-13.21,17.87-6.63,1.05,18.51,15.6,12.6L137.22,357,123.5,345.93Zm-14.8-31.76,10.83,8.75-.71-12.51Z" transform="translate(-18.7 -13.27)"/><path class="cls-9" d="M104.91,331.86l-18.53-.79L72.29,345.34l-1.89-1.87,12.4-12.56-17.19-.73.12-2.65,19.59.83,14.76-14.95Zm-16-3.35,12.51.53-2.73-10.43Z" transform="translate(-18.7 -13.27)"/><path class="cls-9" d="M123.15,325.42l-8.05-17.28,18.37-2.54,11.31-16.55,2.2,1.5L137,305.11l17-2.34.37,2.63L135,308.08ZM119,310.28l4.56,9.78,7.85-11.49Z" transform="translate(-18.7 -13.27)"/><path class="cls-9" d="M97,324.05,84.19,310.66l-20,.57-.07-2.66,17.63-.5L69.8,295.66l1.92-1.84L85.29,308l21-.59Zm-9.24-13.49,8.67,9.05,5.24-9.44Z" transform="translate(-18.7 -13.27)"/><path class="cls-9" d="M151.08,339.19l-15.88-11.5L114.65,332l6.14-18,15,10.87,19.62-4.13.55,2.6L138.71,327,152.64,337Zm-32.41-10.74,13.62-2.87-10.14-7.35Z" transform="translate(-18.7 -13.27)"/><path class="cls-9" d="M102.39,364.92l-2.66.07-.5-17.63-12.41,11.9L85,357.34l14.15-13.57-.58-21L115.21,332l-13.38,12.83Zm-1-37.55.38,13.91,9-8.67Z" transform="translate(-18.7 -13.27)"/><path class="cls-9" d="M123.17,314.41l-18-6.14,10.87-15-4.13-19.62,2.6-.55,3.64,17.27,10.09-13.93,2.15,1.56-11.5,15.88Zm-13.78-7.5,10.22,3.48-2.87-13.62Z" transform="translate(-18.7 -13.27)"/><path class="cls-9" d="M131.55,364.51a50.23,50.23,0,1,1,24.33-66.74A50.28,50.28,0,0,1,131.55,364.51Zm-40-85.85a44.47,44.47,0,1,0,59.09,21.54A44.53,44.53,0,0,0,91.57,278.66Z" transform="translate(-18.7 -13.27)"/><circle class="cls-9" cx="110.34" cy="318.98" r="17.91" transform="translate(-152.17 72.3) rotate(-27.17)"/><path class="cls-8" d="M84.18,262.8a62,62,0,1,0,82.34,30A62,62,0,0,0,84.18,262.8Zm46.15,99.1A47.35,47.35,0,1,1,153.27,299,47.35,47.35,0,0,1,130.33,361.9Z" transform="translate(-18.7 -13.27)"/><path class="cls-10" d="M67.42,339a47.35,47.35,0,0,1,63.32-62.73,47.35,47.35,0,1,0-44.23,83.65A47.1,47.1,0,0,1,67.42,339Z" transform="translate(-18.7 -13.27)"/><path class="cls-10" d="M137.67,263.36A62,62,0,0,1,79.58,372.77a62,62,0,1,0,58.09-109.41Z" transform="translate(-18.7 -13.27)"/><path class="cls-11" d="M121.42,313.82a12.22,12.22,0,1,1-16.23-5.92A12.22,12.22,0,0,1,121.42,313.82Z" transform="translate(-18.7 -13.27)"/><path class="cls-12" d="M231.54,53.35c5.8,0,11.42,1.91,16.8,4.06A201.28,201.28,0,0,1,304.43,91.3l-42.8-5.83c-5-.69-10-1.37-15-2.35-3.65-.73-10.64-1.26-13.21-4.33C231.39,76.41,233.17,53.34,231.54,53.35Z" transform="translate(-18.7 -13.27)"/><path class="cls-10" d="M112.81,236.57l-9,79.5a7.38,7.38,0,0,0,4.55,5.66c4,1.55,7.18-3.87,7.18-3.87l12.73-80.24Z" transform="translate(-18.7 -13.27)"/><path class="cls-9" d="M113.76,241.58c.38,2.77.95,5.87,3.26,7.44,1.57,1.07,3.58,1.16,5.48,1.18a148.1,148.1,0,0,0,28.66-2.47A4.44,4.44,0,0,0,154,246.4c1.43-1.92-.5-5.6,1.66-6.66,1.91-.93,3.41,1.87,3.72,4l4.68,32c.31,2.13.84,4.58,2.76,5.55,1.34.69,3,.41,4.43.1a481.93,481.93,0,0,0,76.89-22.66c2.21-.86,4.57-1.86,5.77-3.91a8.86,8.86,0,0,0,.94-4.72,47.15,47.15,0,0,0-2.19-11.61q-5.16-18.19-12.08-35.82c-2.94-7.51-6.6-15.47-13.69-19.32s-15.77-2.59-23.72-1.13c-25.75,4.73-51.39,10.42-76.11,19.05-4.71,1.65-9.5,3.47-13.23,6.77-4.25,3.76-6,8.24-4.06,13.44C112.27,227.94,112.81,234.68,113.76,241.58Z" transform="translate(-18.7 -13.27)"/><path class="cls-9" d="M397.08,177.7l-18.44,4.84.79-18.53-14.27-14.09L367,148l12.55,12.4.73-17.19,2.66.11-.83,19.6Zm-15.63,1.35,10.44-2.73-9.9-9.79Z" transform="translate(-18.7 -13.27)"/><path class="cls-9" d="M405.42,232.26l-2.66.15-1.11-19.58-16.34-13.2L403.18,193l1.06,18.51,15.59,12.61-1.67,2.07-13.72-11.09Zm-14.8-31.76,10.82,8.75-.71-12.51Z" transform="translate(-18.7 -13.27)"/><path class="cls-9" d="M385.85,201l-18.52-.79-14.09,14.27-1.9-1.87,12.4-12.55-17.18-.73.11-2.66,19.59.84,14.76-15Zm-16-3.34,12.52.53-2.74-10.44Z" transform="translate(-18.7 -13.27)"/><path class="cls-9" d="M404.09,194.57l-8-17.28,18.37-2.53,11.32-16.56,2.19,1.51L418,174.27l17-2.35.36,2.64-19.43,2.67ZM400,179.43l4.56,9.79,7.86-11.5Z" transform="translate(-18.7 -13.27)"/><path class="cls-9" d="M378,193.2l-12.84-13.38-20,.56-.08-2.66,17.64-.49-11.91-12.41,1.92-1.84,13.57,14.15,21-.59Zm-9.25-13.48,8.67,9,5.25-9.43Z" transform="translate(-18.7 -13.27)"/><path class="cls-9" d="M432,208.35l-15.89-11.51-20.55,4.33,6.14-18,15,10.88,19.62-4.13.55,2.6-17.26,3.63,13.93,10.09Zm-32.42-10.74,13.62-2.87-10.14-7.35Z" transform="translate(-18.7 -13.27)"/><path class="cls-9" d="M383.33,234.07l-2.66.08-.49-17.64-12.42,11.91-1.84-1.92,14.16-13.58-.59-21,16.66,9.26L382.77,214Zm-1.05-37.55.39,13.92,9-8.67Z" transform="translate(-18.7 -13.27)"/><path class="cls-9" d="M404.12,183.57l-18.05-6.14,10.87-15-4.13-19.62,2.61-.55,3.63,17.26,10.09-13.93,2.15,1.56L399.79,163Zm-13.78-7.5,10.21,3.48-2.87-13.63Z" transform="translate(-18.7 -13.27)"/><path class="cls-9" d="M412.49,233.67a50.23,50.23,0,1,1,24.33-66.75A50.29,50.29,0,0,1,412.49,233.67Zm-40-85.85a44.47,44.47,0,1,0,59.09,21.54A44.52,44.52,0,0,0,372.51,147.82Z" transform="translate(-18.7 -13.27)"/><path class="cls-9" d="M407.52,180.57a17.91,17.91,0,1,1-23.8-8.67A17.91,17.91,0,0,1,407.52,180.57Z" transform="translate(-18.7 -13.27)"/><path class="cls-8" d="M365.12,132a62,62,0,1,0,82.34,30A62,62,0,0,0,365.12,132Zm46.16,99.11a47.35,47.35,0,1,1,22.93-62.92A47.36,47.36,0,0,1,411.28,231.06Z" transform="translate(-18.7 -13.27)"/><path class="cls-10" d="M348.36,208.12a47.35,47.35,0,0,1,63.32-62.72,47.35,47.35,0,1,0-44.23,83.65A47.18,47.18,0,0,1,348.36,208.12Z" transform="translate(-18.7 -13.27)"/><path class="cls-10" d="M418.61,132.51a62,62,0,0,1-58.09,109.42,62,62,0,1,0,58.09-109.42Z" transform="translate(-18.7 -13.27)"/><path class="cls-11" d="M402.36,183a12.22,12.22,0,1,1-16.23-5.91A12.21,12.21,0,0,1,402.36,183Z" transform="translate(-18.7 -13.27)"/><path class="cls-10" d="M323.43,144.41l64.24,47.71a7.38,7.38,0,0,0,7.18-1.1c3.37-2.73.26-8.15.26-8.15l-63-51.29Z" transform="translate(-18.7 -13.27)"/><path class="cls-10" d="M238.36,231a5.13,5.13,0,0,0,1.41,3.27c1.14.94,2.82.7,4.27.37a67.27,67.27,0,0,0,37.8-24.29c16-20.78,18.92-49.75,36.31-69.38,1.57-1.77,3.38-3.86,2.93-6.18-.57-2.92,15.41-6.19,13-8-6.76-5.08-39.36-6.84-48.78-4.84-16.81,3.56-31.31,24.1-39.64,39.14C233.79,182.55,234.43,207.6,238.36,231Z" transform="translate(-18.7 -13.27)"/><path class="cls-12" d="M178.91,297.43s-1.44,15.32,2.58,18.69c6.28,5.27,17.38-1.32,17.38-1.32s89.49-40.47,91.95-45.06.63-15.35.63-15.35L202,286.13Z" transform="translate(-18.7 -13.27)"/><path class="cls-9" d="M281,258.25c.24,3.47.22,8-1.16,10.61-2.46,4.59-92,45.06-92,45.06a29,29,0,0,1-6.31,2.63c6.33,4.87,17.11-1.53,17.11-1.53s89.5-40.47,92-45.06.63-15.35.63-15.35Z" transform="translate(-18.7 -13.27)"/><path class="cls-13" d="M28.54,218.83c1.11,1.41,22.65-10.55,38.14-7.08s23.66,16,32.39,16.33,96.66-33.48,114-31.3,23.54,20.71,23.54,20.71L265,202.66s1.69-28.13,9.37-43.93c9.39-19.3,22-21.25,20.13-31.71s-45.21-5-86.8,8.21-27.79,23.28-35.4,31.22S128.51,176.16,90,188.7C53.1,200.71,22.38,211,28.54,218.83Z" transform="translate(-18.7 -13.27)"/><path class="cls-12" d="M183.38,313A290.68,290.68,0,0,1,132,317c-26.37-.55-44.49-10.49-44.49-10.49l6.63-19s7.75,3.72,35,4.92,57.15-3.89,57.15-3.89Z" transform="translate(-18.7 -13.27)"/><path class="cls-10" d="M170.41,167.94C159.91,174.67,126,177,90,188.7,83.32,190.87,76.88,193,70.81,195A32.65,32.65,0,0,1,85.7,202.8c3.94,3.66,7.34,8.53,12.58,9.7a18.15,18.15,0,0,0,7-.17A156.46,156.46,0,0,0,125.71,207l66.45-20.74a2.73,2.73,0,0,0,1.77-1.14,2.3,2.3,0,0,0,0-1.73c-1.11-3.53-4.45-5.81-7.64-7.68A121,121,0,0,0,170.41,167.94Z" transform="translate(-18.7 -13.27)"/><path class="cls-10" d="M243.65,140.56c4.25-.67,3.73-9.87,4.55-19.78.43-5.22,8.47-14.94,16.37-16,5.2-.69,17.86-1.73,23.07-2.36,3.74-.44,1.33,1.71,5.07,1.26.27-2.44-2.09-4.31-4.3-5.38-9.23-4.46-20.38-4-29.82-.07s-12.08,7.4-16.08,16.83C241,118.58,231.46,142.5,243.65,140.56Z" transform="translate(-18.7 -13.27)"/><path class="cls-14" d="M166.51,214.78c-.86,1.85-.73,4-.56,6a271.63,271.63,0,0,0,3.89,28.41c.48,2.48,1.07,5.1,2.87,6.88a2.89,2.89,0,0,0,2.62,1c1.67-.45,1.81-2.74,1.6-4.45q-2-16.83-2.79-33.76a8.55,8.55,0,0,0-1-4.34C171.79,212.42,167.6,212.42,166.51,214.78Z" transform="translate(-18.7 -13.27)"/><path class="cls-14" d="M182.3,210.37c-.86,1.85-.73,4-.56,6a271.47,271.47,0,0,0,3.9,28.4c.48,2.48,1.07,5.11,2.86,6.88a2.87,2.87,0,0,0,2.63,1c1.67-.44,1.81-2.73,1.6-4.45q-2-16.82-2.79-33.76a8.4,8.4,0,0,0-1-4.33C187.59,208,183.4,208,182.3,210.37Z" transform="translate(-18.7 -13.27)"/><path class="cls-14" d="M197.76,206.11c-.86,1.85-.73,4-.56,6a271.47,271.47,0,0,0,3.9,28.4c.47,2.48,1.07,5.11,2.86,6.88a2.88,2.88,0,0,0,2.62,1c1.67-.44,1.81-2.73,1.61-4.45q-2-16.81-2.79-33.76a8.5,8.5,0,0,0-1-4.33C203.05,203.75,198.86,203.76,197.76,206.11Z" transform="translate(-18.7 -13.27)"/><path class="cls-15" d="M306.94,247.17l27.89-13S315,208.59,319.72,181.25s35-55.92,35-55.92S334.83,93.8,303,82.2c-39.36-14.35-77.94-10.83-77.94-10.83l-1.19,33.86s35.88-6.34,56.19-2.61c26.14,4.79,35,13.57,35,13.57s-12,10.61-25.8,40.3-18,50.48-18,50.48l-89.47,48.74,2.4,50.37,107.27-51.69s-5.83-40.85,1.4-40.17S297,242,306.94,247.17Z" transform="translate(-18.7 -13.27)"/><g class="cls-16"><path class="cls-17" d="M190.78,157.59a24.34,24.34,0,0,0,6.09-3.72,66.69,66.69,0,0,1,37.28-12.7,2.2,2.2,0,0,0-1.15-2.61,7.14,7.14,0,0,0-3.18-.66,80.36,80.36,0,0,0-35.46,6.64c-3.57,1.55-8.38,3.83-10,7.44C182.31,156.43,186.32,159.14,190.78,157.59Z" transform="translate(-18.7 -13.27)"/></g><g class="cls-16"><path class="cls-17" d="M190.83,255.32a13.13,13.13,0,0,0-4.47,5.64A14.05,14.05,0,0,0,186,267a62.67,62.67,0,0,0,3.51,15c.83,2.27,2.45,4.89,4.85,4.61s3.39-3.34,3.23-5.77c-.4-6-4.12-11.69-3-17.58.94-4.91,5-8.58,9.33-11.14s9-4.43,12.81-7.72a2.52,2.52,0,0,0,1-1.51,1.79,1.79,0,0,0-1.77-1.73,5.28,5.28,0,0,0-2.62.77C205.55,245.89,197.63,249.82,190.83,255.32Z" transform="translate(-18.7 -13.27)"/></g><g class="cls-16"><path class="cls-17" d="M242.86,231.86a6.82,6.82,0,0,0,2.44-1.29,2.25,2.25,0,0,0,.65-2.52,2.27,2.27,0,0,0-2-1.08,6.72,6.72,0,0,0-2.34.62c-3.22,1.3-19.42,5.6-18.07,11.26.83,3.48,6.29-.74,7.79-1.59A84,84,0,0,1,242.86,231.86Z" transform="translate(-18.7 -13.27)"/></g><g class="cls-16"><path class="cls-17" d="M232.44,82.21c2.49,1.3,5.47.91,8.26.62,18.21-1.84,36.39,2.44,54.46,5.34,2.53.41,5.17.78,7.62,0-.68-1.84-2.77-2.66-4.64-3.25a264.46,264.46,0,0,0-56.76-11.22c-2.9-.25-8.15-.87-10.5,1.43C228.71,77.27,230,80.9,232.44,82.21Z" transform="translate(-18.7 -13.27)"/></g><g class="cls-18"><path class="cls-17" d="M96.35,299.3c1.61,2,4.31,2.63,6.81,3.16,21.1,4.41,43.68,8.21,63.7.22a3.82,3.82,0,0,0,2.07-1.46c.67-1.21-.16-2.8-1.37-3.44a7.81,7.81,0,0,0-4.05-.53c-16.34.81-33.07,2.54-48.79-2-4.32-1.25-8.56-2.85-13.12-2.75C98,292.56,92.81,294.93,96.35,299.3Z" transform="translate(-18.7 -13.27)"/></g></g><g id="Floor"><path class="cls-4" d="M462,475.46c0,.14-94.92.26-212,.26s-212-.12-212-.26,94.9-.26,212-.26S462,475.32,462,475.46Z" transform="translate(-18.7 -13.27)"/></g></svg>