<svg id="Capa_1" data-name="Capa 1" xmlns="http://www.w3.org/2000/svg" viewBox="0 0 512 321.17"><defs><style>.cls-1{fill:#0099f7;}</style></defs><path class="cls-1" d="M500.66,292.33a7.5,7.5,0,1,0-12.93,7.59,67.52,67.52,0,1,1-120,6.79l19.93,19a42.65,42.65,0,1,0,41.81-34.25A42.45,42.45,0,0,0,419,292.73l-19.93-19a67.48,67.48,0,0,1,74.2,8.9A7.5,7.5,0,0,0,483,271.26a82.51,82.51,0,0,0-95.34-8.34l-9.23-8.77a93.31,93.31,0,0,1,46.3-12.23,94.37,94.37,0,0,1,14.91,1.19,7.49,7.49,0,0,0,6.09-1.74l23.67-20.5a30.19,30.19,0,0,0,8.4-11.88c6.32-16.25,6.63-46.92-5.43-60.69C439.3,110.54,390.24,92,334.22,96A18.61,18.61,0,0,0,319.61,124l3.3,5.54H307.26a7.5,7.5,0,0,0,0,15h24.18a54.15,54.15,0,0,1,4.83,24.36A83,83,0,0,0,213.45,183.2h-54a18.74,18.74,0,0,1-11.71-4.12L92.9,135a7.51,7.51,0,0,0-4.7-1.66H43.33a22.58,22.58,0,0,0-13.17,40.92l16.15,11.59a7.5,7.5,0,0,0,8.75-12.18L38.92,162.07a7.58,7.58,0,0,1,4.41-13.74H85.56l52.82,42.44a33.84,33.84,0,0,0,21.11,7.43h56.77l48.57,18.56L291.56,227a80.52,80.52,0,0,1-48.71,16.52H226.38a46.31,46.31,0,0,0-40.56,24.08l-12.39-8.9h0l-98-70.4a7.5,7.5,0,0,0-8.75,12.18l88.88,63.84-16.17,9.94a82.63,82.63,0,1,0,23.06,39.17l17.75-10.92v56.23A38.91,38.91,0,0,0,219,397.58h36.14v4H206.24a7.5,7.5,0,1,0,0,15h56.44a7.5,7.5,0,0,0,7.5-7.5V397.58H339a7.5,7.5,0,0,0,6.34-11.51,93.88,93.88,0,0,1,.12-100.56l10.88,10.35a82.53,82.53,0,1,0,144.33-3.53Zm-43.54,41.73a27.65,27.65,0,0,1-54.72,5.62l11.41,10.85a22.73,22.73,0,1,0,31.33-32.94l-11.42-10.85A27.69,27.69,0,0,1,457.12,334.06Zm6.45-172c5.65,12.45,3.91,33.73-.11,42.31a21.44,21.44,0,0,1,.11-42.3Zm-182.33,1a67.55,67.55,0,0,1,51.42,23.48c-7.53,19.53-22.25,26.27-26.49,29.93L243.61,192.6l-14.27-5.46a67.69,67.69,0,0,1,51.9-24ZM180.72,282.38c-.12.73-.23,1.52-.32,2.35l-66.67,41-.07.05L91.21,339.6a7.73,7.73,0,1,1-7.92-13.27l23.53-14.47.06,0L142,290.23l0,0,26.71-16.43Zm-113,62.34A22.79,22.79,0,0,0,99,352.41l7.48-4.61a27.64,27.64,0,1,1-24-41.39,28.29,28.29,0,0,1,4,.3l-11.06,6.81A22.61,22.61,0,0,0,65.31,327a22.84,22.84,0,0,0,2.45,17.76Zm82.29-10.66a67.59,67.59,0,1,1-24-51.62L103,296.62a42.65,42.65,0,1,0,22.16,39.73l23.79-14.63a67,67,0,0,1,1.15,12.34ZM326.3,382.58H219a23.9,23.9,0,0,1-23.88-23.87v-69a31.3,31.3,0,0,1,26.13-30.8c13.37-2.23,43.37,5.79,76.8-18.17,23.65-16.94,45.11-27.76,51.75-59.54a69,69,0,0,0-2.28-36.62h8.89a7.5,7.5,0,0,0,0-15H340.37l-7.86-13.22a3.61,3.61,0,0,1,2.78-5.46c46.74-3.34,88,10.35,117.61,38.72a36.44,36.44,0,0,0-1.13,66.66l-13.28,11.5a111.53,111.53,0,0,0-13.77-.87A109,109,0,0,0,326.3,382.58ZM365.75,262.8l15.81,15,0,0,53.22,50.61a7.73,7.73,0,1,1-10.65,11.2l-53.21-50.6-.05-.05-16.34-15.53A95,95,0,0,1,365.75,262.8Z" transform="translate(0 -95.41)"/><path class="cls-1" d="M256,340.71H234.46a7.5,7.5,0,1,0,0,15H256a7.5,7.5,0,0,0,0-15Z" transform="translate(0 -95.41)"/></svg>