<svg id="Capa_1" data-name="Capa 1" xmlns="http://www.w3.org/2000/svg" viewBox="0 0 189.99 189.99"><defs><style>.cls-1{fill:#0099f7;}</style></defs><path class="cls-1" d="M95,190a95,95,0,1,1,95-95A95.1,95.1,0,0,1,95,190ZM95,4a91,91,0,1,0,91,91A91.1,91.1,0,0,0,95,4Zm0,178.76A87.76,87.76,0,0,1,95,7.24a2,2,0,0,1,0,4,83.76,83.76,0,0,0,0,167.52,2,2,0,0,1,0,4Zm0-11.25A76.52,76.52,0,1,1,171.51,95,76.6,76.6,0,0,1,95,171.51Zm0-149A72.51,72.51,0,1,0,167.51,95,72.59,72.59,0,0,0,95,22.49Zm0,126.73q-1,0-1.92,0A48.5,48.5,0,0,1,68.76,59.94a8.07,8.07,0,0,1,8.37-.29A8.35,8.35,0,0,1,81.5,67v.14a8.17,8.17,0,0,1-3.72,6.92,31.75,31.75,0,0,0,16.88,58.42H95a32,32,0,0,0,31.74-30.39,31.53,31.53,0,0,0-14.49-28,8.23,8.23,0,0,1-3.74-6.94V67a8.18,8.18,0,0,1,4.33-7.29,8.43,8.43,0,0,1,8.6.35A48.5,48.5,0,0,1,95,149.22ZM73.18,62.63a4.08,4.08,0,0,0-2.25.67,44.5,44.5,0,1,0,48.31.11h0a4.36,4.36,0,0,0-4.51-.19A4.23,4.23,0,0,0,112.49,67v.14a4.25,4.25,0,0,0,1.92,3.58,35.49,35.49,0,0,1,16.31,31.53A36,36,0,0,1,95,136.47h-.37a35.75,35.75,0,0,1-19-65.78,4.18,4.18,0,0,0,1.89-3.56V67a4.37,4.37,0,0,0-4.32-4.36ZM95,84.37H94.9a8.32,8.32,0,0,1-8.31-8.31v-27a8.32,8.32,0,0,1,8.31-8.31H95a8.32,8.32,0,0,1,8.31,8.31v27A8.32,8.32,0,0,1,95,84.37Zm-.13-39.6a4.32,4.32,0,0,0-4.31,4.31v27a4.31,4.31,0,0,0,4.31,4.31H95a4.31,4.31,0,0,0,4.31-4.31v-27A4.32,4.32,0,0,0,95,44.77Z"/></svg>