<svg id="Capa_1" data-name="Capa 1" xmlns="http://www.w3.org/2000/svg" viewBox="0 0 434.33 512"><defs><style>.cls-1{fill:#0099f7;}</style></defs><path class="cls-1" d="M457.29,62.41C394.68,59.8,311,44.14,267.13,4.3a16.55,16.55,0,0,0-22.26,0C209.14,36.75,136.27,59,54.71,62.41A16.52,16.52,0,0,0,38.83,79V182.63a7.5,7.5,0,0,0,15,0V79a1.56,1.56,0,0,1,1.5-1.56c86.21-3.58,160.83-26.76,199.63-62a1.52,1.52,0,0,1,2.08,0c47.21,42.86,135.09,59.3,199.62,62A1.57,1.57,0,0,1,458.17,79V250.19A231.89,231.89,0,0,1,340.86,451.56l-76,43.1a18.25,18.25,0,0,1-17.72,0l-76-43.1A231.89,231.89,0,0,1,53.83,250.19V217.63a7.5,7.5,0,0,0-15,0v32.56A246.92,246.92,0,0,0,163.74,464.61l76,43.1a33,33,0,0,0,32.52,0l76-43.1A246.94,246.94,0,0,0,473.17,250.19V79a16.52,16.52,0,0,0-15.88-16.54Z" transform="translate(-38.83 0)"/><path class="cls-1" d="M173.4,366.85H286.6a7.5,7.5,0,0,0,0-15H173.4a10.64,10.64,0,0,1-10.63-10.63V222.86a10.64,10.64,0,0,1,10.63-10.63H338.6a10.64,10.64,0,0,1,10.63,10.63V341.22a10.64,10.64,0,0,1-10.63,10.63h-17a7.5,7.5,0,0,0,0,15h17a25.66,25.66,0,0,0,25.63-25.63V222.86a25.66,25.66,0,0,0-25.63-25.63h-2.53V181.41a80.07,80.07,0,1,0-160.14,0v15.82H173.4a25.66,25.66,0,0,0-25.63,25.63V341.22a25.66,25.66,0,0,0,25.63,25.63ZM292.56,197.23H219.44V181.41a36.56,36.56,0,1,1,73.12,0v15.82ZM190.93,181.41a65.07,65.07,0,1,1,130.14,0v15.82H307.56V181.41a51.57,51.57,0,0,0-103.13,0v15.82h-13.5Z" transform="translate(-38.83 0)"/><path class="cls-1" d="M256,336.38a20.65,20.65,0,0,0,20.62-20.63v-26.2a33.67,33.67,0,1,0-41.24,0v26.2A20.65,20.65,0,0,0,256,336.38Zm0-92.09a18.66,18.66,0,0,1,9.35,34.81,7.49,7.49,0,0,0-3.73,6.48v30.17a5.62,5.62,0,1,1-11.24,0V285.58a7.49,7.49,0,0,0-3.73-6.48A18.66,18.66,0,0,1,256,244.29Z" transform="translate(-38.83 0)"/><path class="cls-1" d="M183.45,431.56l64.71,36.7a16,16,0,0,0,15.67,0l64.72-36.7A209.28,209.28,0,0,0,434.41,249.83V114.39a15.86,15.86,0,0,0-14.06-15.77C358,91.46,304,74.8,264.28,50.44a15.78,15.78,0,0,0-16.56,0C208,74.8,154.05,91.46,91.65,98.62a15.85,15.85,0,0,0-14.06,15.77V249.83A209.28,209.28,0,0,0,183.45,431.56ZM92.59,114.39a.87.87,0,0,1,.77-.87c64.56-7.41,120.65-24.8,162.21-50.29a.81.81,0,0,1,.87,0c41.55,25.49,97.64,42.88,162.2,50.29a.87.87,0,0,1,.77.87V249.83a194.25,194.25,0,0,1-98.26,168.68l-64.72,36.7a.88.88,0,0,1-.86,0l-64.72-36.7A194.25,194.25,0,0,1,92.59,249.83Z" transform="translate(-38.83 0)"/></svg>