<svg id="Layer_1" data-name="Layer 1" xmlns="http://www.w3.org/2000/svg" viewBox="0 0 512 436.51"><defs><style>.cls-1{fill:#0099f7;}</style></defs><path class="cls-1" d="M82,130.1A10,10,0,0,0,89,127.17a.33.33,0,0,0,.06-.06,10,10,0,0,0-14-14.29,2.28,2.28,0,0,0-.22.22A10,10,0,0,0,82,130.1Z" transform="translate(0 -38)"/><path class="cls-1" d="M509.84,260.77A257.49,257.49,0,0,0,437.12,113,256.22,256.22,0,0,0,108,85.07a10,10,0,1,0,11.58,16.31c3.22-2.29,6.5-4.48,9.81-6.59l24.88,43.08A187,187,0,0,0,99.79,192.4L56.7,167.53A234.47,234.47,0,0,1,71.31,147a10,10,0,0,0-15.65-12.46,256.31,256.31,0,0,0-21.4,287.52A44.41,44.41,0,0,0,61.36,443a44.51,44.51,0,0,0,33.93-4.4,44.72,44.72,0,0,0,16.48-61.05,166.52,166.52,0,0,1,261.93-201,166.64,166.64,0,0,1,46.16,148L316.54,285.32a61.14,61.14,0,1,0-17.27,52.09,60.05,60.05,0,0,0,4.75-5.33l109,17.81a168.2,168.2,0,0,1-12.79,27.63,44.7,44.7,0,0,0,77.5,44.56A257.14,257.14,0,0,0,509.84,260.77ZM94.43,387.48a24.7,24.7,0,1,1-42.84,24.6A234,234,0,0,1,20.13,304.15H69.75A187.65,187.65,0,0,0,94.43,387.48ZM71.05,269.75c-.64,4.79-1.07,9.59-1.32,14.39H20.17c.31-6.9.9-13.82,1.82-20.76a237.14,237.14,0,0,1,24.73-78.51l43.05,24.85A185.9,185.9,0,0,0,71.05,269.75ZM226.9,323.27a41.17,41.17,0,1,1,66.3-46.77l-28.52-10.8a26.66,26.66,0,0,0-21.82,1.42A30.64,30.64,0,0,0,231.11,311a26.64,26.64,0,0,0,18.18,12.14l30.09,4.92A41.25,41.25,0,0,1,226.9,323.27Zm74.19-11.93-.08,0-48.5-7.92a6.91,6.91,0,0,1-4.6-3.25A10.63,10.63,0,0,1,252,284.92a7.67,7.67,0,0,1,3.47-.9,6,6,0,0,1,2.14.39l45.83,17.34.29.11,46.11,17.44ZM266,108V58.23a234.5,234.5,0,0,1,99.35,26.51l-24.88,43.1A185.24,185.24,0,0,0,266,108ZM146.66,84.75A234.09,234.09,0,0,1,246,58.22V108a185.24,185.24,0,0,0-74.47,19.87Zm211.11,53.12,24.89-43.11a238.57,238.57,0,0,1,72.7,72.74l-43.14,24.91a187,187,0,0,0-54.45-54.54Zm64.46,71.85,43.14-24.9A236.4,236.4,0,0,1,490,263.38c.91,6.93,1.5,13.86,1.81,20.76H442.27q-.37-7.2-1.31-14.39A186.16,186.16,0,0,0,422.23,209.72ZM460.4,412.1a24.7,24.7,0,0,1-42.84-24.6A185.43,185.43,0,0,0,433,353.15l12.19,2a10,10,0,0,0,5.15-19.23l-11.58-4.37a186.94,186.94,0,0,0,3.54-27.39h49.62A234,234,0,0,1,460.4,412.1Z" transform="translate(0 -38)"/><path class="cls-1" d="M316,392.5H196a10,10,0,0,0-10,10v32a10,10,0,0,0,10,10H316a10,10,0,0,0,10-10v-32A10,10,0,0,0,316,392.5Zm-10,32H206v-12H306Z" transform="translate(0 -38)"/><path class="cls-1" d="M108.18,284.14a10,10,0,0,0,0,20h.23a10,10,0,0,0,0-20Z" transform="translate(0 -38)"/><path class="cls-1" d="M190.88,161.34l-.11-.21a10,10,0,1,0-17.32,10l.11.2a10,10,0,1,0,17.32-10Z" transform="translate(0 -38)"/><path class="cls-1" d="M329.8,176.36a10,10,0,0,0,8.67-5l.12-.21a10,10,0,0,0-17.32-10l-.12.21a10,10,0,0,0,8.65,15Z" transform="translate(0 -38)"/><path class="cls-1" d="M403.82,304.18a10,10,0,0,0,0-20h-.23a10,10,0,0,0,0,20Z" transform="translate(0 -38)"/><path class="cls-1" d="M221.23,454.5H221a10,10,0,0,0,0,20h.23a10,10,0,1,0,0-20Z" transform="translate(0 -38)"/><path class="cls-1" d="M291,454.5H250a10,10,0,0,0,0,20h41a10,10,0,0,0,0-20Z" transform="translate(0 -38)"/></svg>