<svg id="outline" xmlns="http://www.w3.org/2000/svg" viewBox="0 0 482.37 480.01"><defs><style>.cls-1{fill:#0099f7;}</style></defs><path class="cls-1" d="M488,328H344a8,8,0,0,0-8,8v36.69l-70.63-70.63A47.7,47.7,0,0,0,231.43,288h-24A63.56,63.56,0,0,0,216,256V208h40V192H221.77l-16.71-50.12A32,32,0,0,0,174.7,120H129.3a32,32,0,0,0-30.36,21.88L82.23,192H48v16H88v48a63.56,63.56,0,0,0,8.61,32H80a64.07,64.07,0,0,0-64,64V496H32V352a48.05,48.05,0,0,1,48-48h29.74a63.82,63.82,0,0,0,84.52,0h37.17a31.82,31.82,0,0,1,22.63,9.37L336,395.31V448H323.31l2.35-2.34a8,8,0,0,0,1.5-9.24l-15.05-30.1a40.38,40.38,0,0,0-45.92-21.11l-10.94,2.73-33.59-33.6A8,8,0,0,0,208,360v39.75l-61.55,15.39-44.79-44.8L90.34,381.66l48,48a8,8,0,0,0,7.6,2.1l88.81-22.2,12,36L181.9,473.34a82.4,82.4,0,0,1-90.72-17.47L53.66,418.34,42.34,429.66l37.53,37.52A98.4,98.4,0,0,0,188.21,488L224,472.7A24,24,0,0,0,248,496H488a8,8,0,0,0,8-8V336A8,8,0,0,0,488,328ZM104,256v-9.38a23.7,23.7,0,0,0,8,1.38h24a8,8,0,0,0,7.16-4.42l4.42-8.85a4.94,4.94,0,0,1,8.84,0l4.42,8.85A8,8,0,0,0,168,248h24a23.7,23.7,0,0,0,8-1.38V256a47.65,47.65,0,0,1-.68,8h-8.69a27.14,27.14,0,0,1-19.32-8,27.3,27.3,0,0,0-38.62,0h0a27.14,27.14,0,0,1-19.32,8h-8.69A47.65,47.65,0,0,1,104,256Zm25.3-120h45.4a16,16,0,0,1,15.18,10.94L194.23,160H109.77l4.35-13.06A16,16,0,0,1,129.3,136Zm-24.87,40h95.14l5.33,16H99.1ZM104,208h96v16a8,8,0,0,1-8,8H172.94l-2.21-4.42a20.93,20.93,0,0,0-37.46,0L131.06,232H112a8,8,0,0,1-8-8Zm48,96a48,48,0,0,1-41.54-24h2.91A43,43,0,0,0,144,267.31a11.33,11.33,0,0,1,16,0h0A43,43,0,0,0,190.63,280h2.91A48,48,0,0,1,152,304Zm72,75.31,13.15,13.16L224,395.75Zm26.32,26.36,19.75-4.94a24.38,24.38,0,0,1,27.72,12.75l12.48,24.94L303,445.71l-18.54-12.37a8,8,0,0,0-7.59-.69l-15.34,6.57ZM240,472v-6.15l4.31-1.85H336v16H248A8,8,0,0,1,240,472Zm240,8H352V344H480Z" transform="translate(-16 -15.99)"/><path class="cls-1" d="M416,432a24,24,0,1,0-24-24A24,24,0,0,0,416,432Zm0-32a8,8,0,1,1-8,8A8,8,0,0,1,416,400Z" transform="translate(-16 -15.99)"/><path class="cls-1" d="M320,224a24,24,0,1,0,24-24A24,24,0,0,0,320,224Zm32,0a8,8,0,1,1-8-8A8,8,0,0,1,352,224Z" transform="translate(-16 -15.99)"/><path class="cls-1" d="M374.19,98.93A8,8,0,0,0,368,96H320a8,8,0,0,0-8,8,7.54,7.54,0,0,0,.16,1.57l16,80A8,8,0,0,0,336,192h16a8,8,0,0,0,7.84-6.43l16-80A8,8,0,0,0,374.19,98.93ZM345.44,176h-2.88l-12.8-64h28.48Z" transform="translate(-16 -15.99)"/><path class="cls-1" d="M377.11,34.14a35.11,35.11,0,0,0-61.47,0L241,169.44l14,7.73,74.65-135.3a19.11,19.11,0,0,1,33.45,0L481,255.56A11.09,11.09,0,0,1,471.29,272H272v16H471.29A27.09,27.09,0,0,0,495,247.83Z" transform="translate(-16 -15.99)"/></svg>