<svg id="Capa_1" data-name="Capa 1" xmlns="http://www.w3.org/2000/svg" viewBox="0 0 512 271.51"><defs><style>.cls-1{fill:#0099f7;}</style></defs><path class="cls-1" d="M95.76,344.69h-.08a7.54,7.54,0,1,0,.08,0Z" transform="translate(0 -120.25)"/><path class="cls-1" d="M159.89,344.69h-.08a7.54,7.54,0,1,0,.08,0Z" transform="translate(0 -120.25)"/><path class="cls-1" d="M424.42,344.69h-.08a7.54,7.54,0,1,0,.08,0Z" transform="translate(0 -120.25)"/><path class="cls-1" d="M505.11,254,495,243.93,474.71,183a7.5,7.5,0,0,0-2.27-14.65H399.77V135.76a15.52,15.52,0,0,0-15.51-15.51H15.52A15.53,15.53,0,0,0,0,135.76V312.11a15.53,15.53,0,0,0,15.52,15.52h8.53v16.54a15.53,15.53,0,0,0,15.51,15.52H56.83a39.55,39.55,0,0,0,70.91,15.64,39.55,39.55,0,0,0,70.91-15.64H385.5a39.56,39.56,0,0,0,78.4-7.5c0-.17,0-.34,0-.51h32.59A15.53,15.53,0,0,0,512,336.16V270.65A23.37,23.37,0,0,0,505.11,254ZM56.83,344.69H39.56a.51.51,0,0,1-.51-.51V327.63H64.69A39.48,39.48,0,0,0,56.83,344.69Zm38.85,32.07a24.57,24.57,0,0,1-.16-49.13h.31a24.57,24.57,0,0,1-.15,49.13Zm64.13,0a24.57,24.57,0,0,1-.16-49.13H160a24.57,24.57,0,0,1-.15,49.13ZM385.5,344.69H198.65a39.48,39.48,0,0,0-7.86-17.06H336.16a7.5,7.5,0,0,0,0-15H15.52a.52.52,0,0,1-.52-.52V135.76a.52.52,0,0,1,.52-.52H384.26a.52.52,0,0,1,.51.52V312.63H368.23a7.5,7.5,0,0,0,0,15h25.12A39.35,39.35,0,0,0,385.5,344.69Zm95.23-96.19H432.36a.52.52,0,0,1-.52-.52V215.4H469.7ZM424.34,376.76a24.57,24.57,0,0,1-.15-49.13h.2a24.57,24.57,0,0,1-.05,49.13ZM497,336.17a.51.51,0,0,1-.52.51H460.73a39.61,39.61,0,0,0-36.39-24.05H399.77V183.86h0a.52.52,0,0,1,.52-.51H459l5.69,17.06H424.34a7.5,7.5,0,0,0-7.5,7.5V248a15.53,15.53,0,0,0,15.51,15.52h61l1.12,1.12a8.5,8.5,0,0,1,2.5,6v17.92h-8.53a7.5,7.5,0,0,0,0,15H497Z" transform="translate(0 -120.25)"/><path class="cls-1" d="M360.21,280.57H39.56a7.5,7.5,0,0,0,0,15H360.21a7.5,7.5,0,0,0,0-15Z" transform="translate(0 -120.25)"/></svg>